<svg version="1.1" id="Layer_1" xmlns="http://www.w3.org/2000/svg" xmlns:xlink="http://www.w3.org/1999/xlink" x="0px" y="0px"
	 width="100%" viewBox="0 0 398 397" enable-background="new 0 0 398 397" xml:space="preserve">
<path fill="#013399" opacity="1.000000" stroke="none" 
	d="
M222.000000,398.000000 
	C208.312439,398.000000 194.624878,398.000000 180.518066,397.587585 
	C179.258270,396.790039 178.451584,396.195007 177.571793,396.053040 
	C170.589325,394.926086 163.477783,394.368805 156.620438,392.735718 
	C124.273331,385.032257 95.184059,370.578064 70.258186,348.548676 
	C47.148903,328.124786 29.185293,303.746399 17.500715,274.991852 
	C9.759932,255.942581 4.427516,236.172394 3.199149,215.706345 
	C1.767914,191.860275 3.126112,168.110443 9.940219,144.879791 
	C18.694344,115.035255 33.154293,88.439224 54.101070,65.491478 
	C67.097832,51.253178 81.783051,38.960682 98.407188,29.031458 
	C119.138893,16.648874 141.256638,8.089728 165.070953,3.898231 
	C167.799484,3.417990 170.361023,1.989058 173.000000,1.000000 
	C191.354233,1.000000 209.708450,1.000000 228.483170,1.406874 
	C229.575424,2.197216 230.203568,2.767099 230.925552,2.936086 
	C241.162415,5.332160 251.592514,7.082074 261.623962,10.142015 
	C289.389771,18.611568 313.940765,32.909794 335.189301,52.723438 
	C350.403778,66.910469 363.480194,82.768364 373.711029,101.027313 
	C384.465820,120.221428 392.213165,140.384079 396.099487,162.053162 
	C396.589935,164.787552 398.010406,167.355133 399.000000,170.000000 
	C399.000000,189.020889 399.000000,208.041794 398.593018,227.481110 
	C397.355774,231.834473 396.593964,235.785294 395.683685,239.701614 
	C391.255768,258.752075 384.658447,276.961578 375.414337,294.266052 
	C363.866364,315.883301 348.202484,334.178192 330.002686,350.215393 
	C315.844025,362.691711 299.715820,372.477509 282.437561,380.244598 
	C264.137238,388.471130 245.068130,393.845306 225.109558,396.076599 
	C224.015045,396.198944 223.033920,397.335541 222.000000,398.000000 
M180.299606,96.804405 
	C179.819595,96.943840 179.316330,97.030518 178.862885,97.230232 
	C147.782257,110.918968 129.257095,135.189468 120.146461,167.256760 
	C119.308678,170.205551 118.288437,171.350571 115.164703,171.215881 
	C109.342690,170.964828 103.499702,171.055634 97.671150,171.214096 
	C96.396698,171.248749 94.430756,171.824799 94.001976,172.729248 
	C91.423943,178.167374 89.201225,183.773956 86.567902,190.015259 
	C96.981506,190.015259 106.406723,190.015259 115.833618,190.015259 
	C115.833618,195.852127 115.833618,201.261856 115.833618,207.020508 
	C109.619354,207.020508 103.647888,206.913132 97.685738,207.101120 
	C96.312439,207.144440 94.228760,207.841125 93.739784,208.850983 
	C91.236580,214.020767 89.148155,219.391357 86.663857,225.287125 
	C96.462074,225.287125 105.600800,225.413223 114.732704,225.218643 
	C117.925018,225.150650 119.294655,226.079468 120.131744,229.320847 
	C124.214912,245.131714 131.355072,259.494019 141.947769,271.969025 
	C160.629395,293.970306 184.210068,306.343781 213.363174,305.657776 
	C237.740799,305.084167 259.154266,295.598785 278.190491,280.608582 
	C279.147064,279.855316 280.293976,278.588409 280.322021,277.533295 
	C280.510559,270.443390 280.420166,263.346008 280.420166,255.951248 
	C250.835464,281.726807 219.196762,297.404999 180.417480,279.916565 
	C157.115891,269.408203 143.688461,249.912445 136.160889,225.287033 
	C138.947220,225.287033 140.773453,225.287033 142.599686,225.287033 
	C175.097015,225.287018 207.594391,225.309250 240.091507,225.228043 
	C241.908157,225.223495 244.792343,224.912888 245.356155,223.811356 
	C248.038895,218.570312 250.089951,213.005905 252.669785,206.828827 
	C212.208511,206.828827 172.642807,206.828827 132.974640,206.828827 
	C132.974640,200.921555 132.974640,195.511429 132.974640,189.795471 
	C135.296021,189.795471 137.105240,189.795471 138.914444,189.795471 
	C177.744583,189.795425 216.574738,189.810959 255.404755,189.741821 
	C257.059967,189.738876 259.701996,189.447739 260.203583,188.447769 
	C262.915649,183.041321 265.097443,177.368896 267.735016,171.143890 
	C245.114166,171.143890 223.483429,171.143890 201.852676,171.143890 
	C180.218369,171.143890 158.584061,171.143890 136.765366,171.143890 
	C136.894684,169.907242 136.832031,169.042206 137.086685,168.283676 
	C144.945053,144.874817 158.866150,126.452454 181.707245,116.008400 
	C206.164810,104.825226 230.115021,108.404121 252.889404,120.895096 
	C262.680969,126.265434 271.418396,133.557663 280.727753,140.041519 
	C280.730560,140.035507 281.075439,139.332306 281.391602,138.616425 
	C288.202545,123.195618 288.378265,122.943886 274.472839,113.193153 
	C245.965317,93.203163 215.314865,84.343620 180.299606,96.804405 
M47.622028,200.582092 
	C49.882233,198.812805 52.142437,197.043518 54.402637,195.274246 
	C50.379524,194.188004 45.794708,195.537766 43.438751,193.823807 
	C40.874340,191.958206 40.385235,187.245819 38.964802,183.785446 
	C38.889645,183.602341 38.567497,183.520599 37.746456,183.009613 
	C37.438560,192.899933 32.336216,196.734467 22.252596,193.897568 
	C22.384695,194.363174 22.516794,194.828766 22.648893,195.294373 
	C25.712599,197.678986 28.776304,200.063614 31.938797,202.525116 
	C30.708841,206.364639 29.524672,210.061234 27.905060,215.117142 
	C32.142197,212.066315 35.298775,209.793533 38.535889,207.462738 
	C41.687630,209.746384 44.600613,211.857025 48.729797,214.848892 
	C47.538406,210.731583 46.522640,208.000259 46.032581,205.177658 
	C45.809246,203.891327 46.624332,202.424728 47.622028,200.582092 
M192.649078,31.725309 
	C190.372498,31.725309 188.095917,31.725309 184.599869,31.725309 
	C188.726852,34.926060 191.822021,37.326576 194.949112,39.751846 
	C193.717789,43.752510 192.563217,47.503819 191.114761,52.209923 
	C195.113785,49.342220 198.298874,47.058189 201.549301,44.727295 
	C204.667404,46.953217 207.597565,49.044975 211.672256,51.953766 
	C210.274139,47.041885 209.251984,43.450768 208.203247,39.766312 
	C211.324432,37.301552 214.366348,34.899387 217.408264,32.497227 
	C207.453690,34.291073 202.601639,29.903044 201.720490,20.002951 
	C200.383453,22.955265 199.392380,25.421011 198.789383,27.978266 
	C198.099579,30.903612 196.570236,32.269184 192.649078,31.725309 
M48.802208,275.036530 
	C50.268181,276.129303 51.621632,277.438507 53.222893,278.271088 
	C56.874443,280.169708 57.565693,282.723236 55.805805,286.363129 
	C54.852413,288.334991 54.378780,290.538818 53.688732,292.637970 
	C53.933372,293.022308 54.178013,293.406647 54.422653,293.790985 
	C60.144478,286.672363 66.214287,285.372406 72.920288,292.662781 
	C72.385323,288.204132 70.225311,284.168182 71.320930,281.439301 
	C72.541069,278.400299 76.723724,276.550690 80.399925,273.542511 
	C75.672882,273.332275 70.944000,274.493652 68.484337,272.641510 
	C65.821739,270.636536 65.276016,265.820312 63.581287,261.678406 
	C62.744057,264.212250 61.837227,266.053925 61.556602,267.986481 
	C60.890160,272.576080 58.349850,273.873260 53.981701,273.393829 
	C52.146435,273.192383 50.179207,274.193146 48.802208,275.036530 
M334.264130,111.523964 
	C331.178375,111.523964 328.092621,111.523964 323.642792,111.523964 
	C327.884277,114.803581 330.967865,117.187897 334.087524,119.600113 
	C332.797424,123.497612 331.589539,127.146759 329.978394,132.014099 
	C334.122009,129.125397 337.302795,126.907906 340.682373,124.551826 
	C343.935150,126.910469 347.138550,129.233322 350.976776,132.016495 
	C349.585419,127.382957 348.414795,123.484558 347.228851,119.535034 
	C350.407745,117.079613 353.393188,114.773621 356.378632,112.467636 
	C356.686646,111.877853 356.994659,111.288063 357.302673,110.698280 
	C346.196350,114.549881 341.833313,109.479073 341.141296,99.820816 
	C338.909210,104.168999 337.032440,107.824982 334.264130,111.523964 
M284.617584,345.569794 
	C287.199707,347.451538 289.781830,349.333313 293.309021,351.903839 
	C292.220856,348.301117 291.773071,345.828552 290.739258,343.631775 
	C289.253082,340.473938 289.934326,338.439087 292.883057,336.662811 
	C294.999146,335.388123 296.823364,333.628998 299.480652,331.531067 
	C294.486755,331.223633 289.815369,332.262207 287.241974,330.400574 
	C284.723541,328.578766 284.343231,323.801392 283.024414,320.321289 
	C282.122955,330.293762 276.208313,332.617767 267.647705,331.322510 
	C267.505707,331.301056 267.292725,331.749115 266.949158,332.186523 
	C268.909210,333.695831 270.726196,335.422455 272.836456,336.641418 
	C275.830688,338.371002 276.534485,340.390869 275.058655,343.565704 
	C274.027924,345.783081 273.565735,348.264740 272.810822,350.756287 
	C276.924500,348.690216 280.460785,346.914124 284.617584,345.569794 
M364.059479,184.678268 
	C363.927429,184.577560 363.807037,184.449463 363.658966,184.386475 
	C363.571320,184.349228 363.344238,184.406448 363.341675,184.435425 
	C362.505707,193.943039 356.542389,196.514542 347.627563,195.684647 
	C348.272278,196.368088 348.631927,196.852722 349.087677,197.217178 
	C357.498901,203.943466 357.498596,203.939362 353.422729,214.192444 
	C353.356628,214.358688 353.648773,214.667343 353.967621,215.285294 
	C357.208435,213.004822 360.403961,210.756210 363.637817,208.480637 
	C366.652100,210.449265 369.535339,212.332306 373.296143,214.788498 
	C372.289490,210.015244 370.119507,205.975052 371.215820,203.247818 
	C372.423920,200.242371 376.631775,198.442734 379.532867,196.117828 
	C370.895905,197.080658 365.214630,194.674652 364.059479,184.678268 
M125.270554,52.746372 
	C124.700272,51.014656 124.148193,49.276672 123.554581,47.552994 
	C122.966095,45.844254 122.335739,44.149933 121.723747,42.449287 
	C120.524475,52.262466 115.189323,55.784355 105.710304,54.432861 
	C108.790977,56.825939 111.871658,59.219017 115.024857,61.668427 
	C113.763893,65.498428 112.561203,69.151428 110.941582,74.070793 
	C115.118767,71.157295 118.296097,68.941170 121.579430,66.651108 
	C124.630074,68.799309 127.582748,70.878517 131.599518,73.707047 
	C130.239731,68.869370 129.202240,65.178398 128.175308,61.524906 
	C131.427414,59.041721 134.420380,56.756424 138.264145,53.821472 
	C133.471161,53.604088 129.729538,53.434391 125.270554,52.746372 
M323.547241,276.197052 
	C331.273621,282.135681 331.264496,282.132874 328.363220,291.572815 
	C328.158081,292.240173 328.230927,292.992950 328.133331,294.227264 
	C331.675446,291.696777 334.743439,289.505035 337.935486,287.224640 
	C339.701904,288.486877 341.308044,289.633636 342.913116,290.781860 
	C344.422607,291.861694 345.930969,292.943115 347.439819,294.023834 
	C342.832336,285.322693 345.281769,279.396729 353.401337,275.197693 
	C353.518372,275.137207 353.415955,274.652313 353.415955,273.759064 
	C344.417175,276.191650 338.829468,273.115295 338.204559,262.686127 
	C336.938629,264.991058 336.402649,266.636597 335.833557,268.270569 
	C335.184906,270.133026 334.506744,271.985199 333.761688,274.064423 
	C330.177094,274.064423 326.700500,274.050293 323.226501,274.138611 
	C323.131042,274.141022 323.063599,275.244812 323.547241,276.197052 
M209.156250,377.194305 
	C209.446823,376.435303 210.140335,375.565948 209.967270,374.933899 
	C207.532440,366.042206 207.509842,366.057739 214.773148,360.355164 
	C215.436951,359.834015 215.958511,359.131683 216.546127,358.513519 
	C206.351166,360.790985 201.887543,355.912750 200.337769,346.808777 
	C199.072601,350.519562 197.807419,354.230347 196.472992,358.144287 
	C192.434067,358.144287 188.682159,358.144287 183.887756,358.144287 
	C185.654449,359.570038 186.604355,360.376312 187.594666,361.129425 
	C194.145767,366.111603 194.138336,366.104614 191.742035,373.727295 
	C191.373825,374.898529 191.150269,376.115234 190.619965,378.298340 
	C194.529587,375.492218 197.581451,373.301788 200.710083,371.056213 
	C203.462280,373.086884 205.998840,374.958466 209.156250,377.194305 
M296.786499,55.334984 
	C296.920776,55.077747 297.090576,54.831142 297.172211,54.558170 
	C297.205841,54.445679 297.050812,54.151466 296.980499,54.151093 
	C293.180786,54.130863 289.380951,54.133179 285.465851,54.133179 
	C284.128204,50.096275 282.906219,46.408382 281.442627,41.991383 
	C279.953033,46.279835 279.701111,51.155319 277.194794,53.052357 
	C274.692657,54.946213 269.932159,53.847145 266.164612,54.102684 
	C265.954102,54.116962 265.769897,54.518700 265.603424,54.706329 
	C268.608276,57.260334 273.178314,59.320923 274.148315,62.485115 
	C275.107086,65.612755 272.428925,69.855309 271.105530,74.443001 
	C274.987000,71.660721 278.185852,69.367744 281.397125,67.065857 
	C284.454254,69.199020 287.381348,71.241478 290.808197,73.632629 
	C290.808197,72.159256 290.941864,71.489586 290.788177,70.894073 
	C288.405090,61.659592 288.396393,61.661686 295.828125,56.080349 
	C295.960632,55.980827 296.103760,55.895508 296.786499,55.334984 
M108.743088,350.569550 
	C112.029457,348.393036 115.315826,346.216553 118.714859,343.965454 
	C120.220016,345.046570 121.699646,346.106018 123.175667,347.170471 
	C124.686836,348.260254 126.194489,349.354919 127.703682,350.447479 
	C128.226410,350.379944 128.749146,350.312439 129.271881,350.244934 
	C123.119225,341.631226 126.185066,336.081085 133.968994,332.070190 
	C134.115295,331.994812 134.061127,331.530334 134.198120,330.545929 
	C124.264236,333.578857 119.705833,328.838104 118.784012,319.110962 
	C117.604240,321.565735 116.514000,323.539093 116.247429,325.618042 
	C115.644363,330.321289 113.038940,331.571594 108.731750,330.954559 
	C106.781624,330.675232 104.758240,330.907196 101.818924,330.907196 
	C105.811371,334.177094 110.302025,336.098480 111.256790,339.132538 
	C112.205681,342.147980 109.599503,346.282104 108.743088,350.569550 
M65.448845,109.113228 
	C64.464523,106.039062 63.480198,102.964905 62.151451,98.815056 
	C61.267677,101.060265 60.544540,102.195549 60.392212,103.402863 
	C59.632183,109.426514 56.474365,111.965157 50.387558,110.846642 
	C49.107586,110.611427 47.709774,111.017487 45.973526,111.160393 
	C49.380714,114.081932 53.854923,116.101074 54.682434,119.119858 
	C55.577305,122.384384 53.067265,126.582260 51.828743,131.163040 
	C55.675095,128.360825 58.860256,126.040329 62.041573,123.722626 
	C65.452782,126.184097 68.545883,128.416016 72.482124,131.256348 
	C71.432098,127.853508 70.976135,125.366837 69.915543,123.172394 
	C68.274361,119.776657 69.219849,117.674484 72.312080,115.865799 
	C74.318001,114.692535 76.042480,113.038109 78.925865,110.796257 
	C75.420341,110.796257 73.428719,110.919037 71.459648,110.760925 
	C69.577820,110.609825 67.719460,110.166458 65.448845,109.113228 
z"/>
<path fill="#000000" opacity="1.000000" stroke="none" 
	d="
M172.531342,1.000000 
	C170.361023,1.989058 167.799484,3.417990 165.070953,3.898231 
	C141.256638,8.089728 119.138893,16.648874 98.407188,29.031458 
	C81.783051,38.960682 67.097832,51.253178 54.101070,65.491478 
	C33.154293,88.439224 18.694344,115.035255 9.940219,144.879791 
	C3.126112,168.110443 1.767914,191.860275 3.199149,215.706345 
	C4.427516,236.172394 9.759932,255.942581 17.500715,274.991852 
	C29.185293,303.746399 47.148903,328.124786 70.258186,348.548676 
	C95.184059,370.578064 124.273331,385.032257 156.620438,392.735718 
	C163.477783,394.368805 170.589325,394.926086 177.571793,396.053040 
	C178.451584,396.195007 179.258270,396.790039 180.049408,397.587585 
	C156.645767,398.000000 133.291550,398.000000 109.301605,397.694336 
	C101.587196,393.507294 94.404549,389.802612 87.449463,385.711151 
	C67.332146,373.876495 50.030018,358.546783 34.809006,341.048187 
	C20.954567,325.120636 9.918265,307.182434 1.000000,288.000000 
	C1.000000,192.424561 1.000000,96.849136 1.000000,1.000000 
	C58.020603,1.000000 115.041641,1.000000 172.531342,1.000000 
z"/>
<path fill="#000000" opacity="1.000000" stroke="none" 
	d="
M399.000000,169.531342 
	C398.010406,167.355133 396.589935,164.787552 396.099487,162.053162 
	C392.213165,140.384079 384.465820,120.221428 373.711029,101.027313 
	C363.480194,82.768364 350.403778,66.910469 335.189301,52.723438 
	C313.940765,32.909794 289.389771,18.611568 261.623962,10.142015 
	C251.592514,7.082074 241.162415,5.332160 230.925552,2.936086 
	C230.203568,2.767099 229.575424,2.197216 228.951828,1.406874 
	C285.593445,1.000000 342.186920,1.000000 399.000000,1.000000 
	C399.000000,57.020702 399.000000,113.041695 399.000000,169.531342 
z"/>
<path fill="#003399" opacity="1.000000" stroke="none" 
	d="
M1.000000,288.468658 
	C9.918265,307.182434 20.954567,325.120636 34.809006,341.048187 
	C50.030018,358.546783 67.332146,373.876495 87.449463,385.711151 
	C94.404549,389.802612 101.587196,393.507294 108.832947,397.694336 
	C73.072380,398.000000 37.144760,398.000000 1.000000,398.000000 
	C1.000000,361.646057 1.000000,325.291687 1.000000,288.468658 
z"/>
<path fill="#003399" opacity="1.000000" stroke="none" 
	d="
M399.000000,293.000000 
	C399.000000,327.927277 399.000000,362.854584 399.000000,398.000000 
	C363.979401,398.000000 328.958374,398.000000 293.636169,397.694519 
	C310.431000,389.017639 326.409973,379.008301 341.036530,366.698578 
	C355.405487,354.605652 368.343109,341.241028 378.933868,325.808289 
	C386.177460,315.252991 392.349121,303.962036 399.000000,293.000000 
z"/>
<path fill="#000000" opacity="1.000000" stroke="none" 
	d="
M399.000000,292.531342 
	C392.349121,303.962036 386.177460,315.252991 378.933868,325.808289 
	C368.343109,341.241028 355.405487,354.605652 341.036530,366.698578 
	C326.409973,379.008301 310.431000,389.017639 293.167542,397.694519 
	C269.645782,398.000000 246.291550,398.000000 222.468658,398.000000 
	C223.033920,397.335541 224.015045,396.198944 225.109558,396.076599 
	C245.068130,393.845306 264.137238,388.471130 282.437561,380.244598 
	C299.715820,372.477509 315.844025,362.691711 330.002686,350.215393 
	C348.202484,334.178192 363.866364,315.883301 375.414337,294.266052 
	C384.658447,276.961578 391.255768,258.752075 395.683685,239.701614 
	C396.593964,235.785294 397.355774,231.834473 398.593018,227.949768 
	C399.000000,249.354233 399.000000,270.708466 399.000000,292.531342 
z"/>
<path fill="#FBCA02" opacity="1.000000" stroke="none" 
	d="
M180.643066,96.623810 
	C215.314865,84.343620 245.965317,93.203163 274.472839,113.193153 
	C288.378265,122.943886 288.202545,123.195618 281.391602,138.616425 
	C281.075439,139.332306 280.730560,140.035507 280.727753,140.041519 
	C271.418396,133.557663 262.680969,126.265434 252.889404,120.895096 
	C230.115021,108.404121 206.164810,104.825226 181.707245,116.008400 
	C158.866150,126.452454 144.945053,144.874817 137.086685,168.283676 
	C136.832031,169.042206 136.894684,169.907242 136.765366,171.143890 
	C158.584061,171.143890 180.218369,171.143890 201.852676,171.143890 
	C223.483429,171.143890 245.114166,171.143890 267.735016,171.143890 
	C265.097443,177.368896 262.915649,183.041321 260.203583,188.447769 
	C259.701996,189.447739 257.059967,189.738876 255.404755,189.741821 
	C216.574738,189.810959 177.744583,189.795425 138.914444,189.795471 
	C137.105240,189.795471 135.296021,189.795471 132.974640,189.795471 
	C132.974640,195.511429 132.974640,200.921555 132.974640,206.828827 
	C172.642807,206.828827 212.208511,206.828827 252.669785,206.828827 
	C250.089951,213.005905 248.038895,218.570312 245.356155,223.811356 
	C244.792343,224.912888 241.908157,225.223495 240.091507,225.228043 
	C207.594391,225.309250 175.097015,225.287018 142.599686,225.287033 
	C140.773453,225.287033 138.947220,225.287033 136.160889,225.287033 
	C143.688461,249.912445 157.115891,269.408203 180.417480,279.916565 
	C219.196762,297.404999 250.835464,281.726807 280.420166,255.951248 
	C280.420166,263.346008 280.510559,270.443390 280.322021,277.533295 
	C280.293976,278.588409 279.147064,279.855316 278.190491,280.608582 
	C259.154266,295.598785 237.740799,305.084167 213.363174,305.657776 
	C184.210068,306.343781 160.629395,293.970306 141.947769,271.969025 
	C131.355072,259.494019 124.214912,245.131714 120.131744,229.320847 
	C119.294655,226.079468 117.925018,225.150650 114.732704,225.218643 
	C105.600800,225.413223 96.462074,225.287125 86.663857,225.287125 
	C89.148155,219.391357 91.236580,214.020767 93.739784,208.850983 
	C94.228760,207.841125 96.312439,207.144440 97.685738,207.101120 
	C103.647888,206.913132 109.619354,207.020508 115.833618,207.020508 
	C115.833618,201.261856 115.833618,195.852127 115.833618,190.015259 
	C106.406723,190.015259 96.981506,190.015259 86.567902,190.015259 
	C89.201225,183.773956 91.423943,178.167374 94.001976,172.729248 
	C94.430756,171.824799 96.396698,171.248749 97.671150,171.214096 
	C103.499702,171.055634 109.342690,170.964828 115.164703,171.215881 
	C118.288437,171.350571 119.308678,170.205551 120.146461,167.256760 
	C129.257095,135.189468 147.782257,110.918968 178.862885,97.230232 
	C179.316330,97.030518 179.819595,96.943840 180.643066,96.623810 
z"/>
<path fill="#EFC20A" opacity="1.000000" stroke="none" 
	d="
M47.295227,200.810989 
	C46.624332,202.424728 45.809246,203.891327 46.032581,205.177658 
	C46.522640,208.000259 47.538406,210.731583 48.729797,214.848892 
	C44.600613,211.857025 41.687630,209.746384 38.535889,207.462738 
	C35.298775,209.793533 32.142197,212.066315 27.905060,215.117142 
	C29.524672,210.061234 30.708841,206.364639 31.938797,202.525116 
	C28.776304,200.063614 25.712599,197.678986 22.648893,195.294373 
	C22.516794,194.828766 22.384695,194.363174 22.252596,193.897568 
	C32.336216,196.734467 37.438560,192.899933 37.746456,183.009613 
	C38.567497,183.520599 38.889645,183.602341 38.964802,183.785446 
	C40.385235,187.245819 40.874340,191.958206 43.438751,193.823807 
	C45.794708,195.537766 50.379524,194.188004 54.402637,195.274246 
	C52.142437,197.043518 49.882233,198.812805 47.295227,200.810989 
z"/>
<path fill="#F6C705" opacity="1.000000" stroke="none" 
	d="
M193.093643,31.725216 
	C196.570236,32.269184 198.099579,30.903612 198.789383,27.978266 
	C199.392380,25.421011 200.383453,22.955265 201.720490,20.002951 
	C202.601639,29.903044 207.453690,34.291073 217.408264,32.497227 
	C214.366348,34.899387 211.324432,37.301552 208.203247,39.766312 
	C209.251984,43.450768 210.274139,47.041885 211.672256,51.953766 
	C207.597565,49.044975 204.667404,46.953217 201.549301,44.727295 
	C198.298874,47.058189 195.113785,49.342220 191.114761,52.209923 
	C192.563217,47.503819 193.717789,43.752510 194.949112,39.751846 
	C191.822021,37.326576 188.726852,34.926060 184.599869,31.725309 
	C188.095917,31.725309 190.372498,31.725309 193.093643,31.725216 
z"/>
<path fill="#EFC209" opacity="1.000000" stroke="none" 
	d="
M48.537086,274.841980 
	C50.179207,274.193146 52.146435,273.192383 53.981701,273.393829 
	C58.349850,273.873260 60.890160,272.576080 61.556602,267.986481 
	C61.837227,266.053925 62.744057,264.212250 63.581287,261.678406 
	C65.276016,265.820312 65.821739,270.636536 68.484337,272.641510 
	C70.944000,274.493652 75.672882,273.332275 80.399925,273.542511 
	C76.723724,276.550690 72.541069,278.400299 71.320930,281.439301 
	C70.225311,284.168182 72.385323,288.204132 72.920288,292.662781 
	C66.214287,285.372406 60.144478,286.672363 54.422653,293.790985 
	C54.178013,293.406647 53.933372,293.022308 53.688732,292.637970 
	C54.378780,290.538818 54.852413,288.334991 55.805805,286.363129 
	C57.565693,282.723236 56.874443,280.169708 53.222893,278.271088 
	C51.621632,277.438507 50.268181,276.129303 48.537086,274.841980 
z"/>
<path fill="#F6C705" opacity="1.000000" stroke="none" 
	d="
M334.709900,111.502457 
	C337.032440,107.824982 338.909210,104.168999 341.141296,99.820816 
	C341.833313,109.479073 346.196350,114.549881 357.302673,110.698280 
	C356.994659,111.288063 356.686646,111.877853 356.378632,112.467636 
	C353.393188,114.773621 350.407745,117.079613 347.228851,119.535034 
	C348.414795,123.484558 349.585419,127.382957 350.976776,132.016495 
	C347.138550,129.233322 343.935150,126.910469 340.682373,124.551826 
	C337.302795,126.907906 334.122009,129.125397 329.978394,132.014099 
	C331.589539,127.146759 332.797424,123.497612 334.087524,119.600113 
	C330.967865,117.187897 327.884277,114.803581 323.642792,111.523964 
	C328.092621,111.523964 331.178375,111.523964 334.709900,111.502457 
z"/>
<path fill="#F1C408" opacity="1.000000" stroke="none" 
	d="
M284.307312,345.353912 
	C280.460785,346.914124 276.924500,348.690216 272.810822,350.756287 
	C273.565735,348.264740 274.027924,345.783081 275.058655,343.565704 
	C276.534485,340.390869 275.830688,338.371002 272.836456,336.641418 
	C270.726196,335.422455 268.909210,333.695831 266.949158,332.186523 
	C267.292725,331.749115 267.505707,331.301056 267.647705,331.322510 
	C276.208313,332.617767 282.122955,330.293762 283.024414,320.321289 
	C284.343231,323.801392 284.723541,328.578766 287.241974,330.400574 
	C289.815369,332.262207 294.486755,331.223633 299.480652,331.531067 
	C296.823364,333.628998 294.999146,335.388123 292.883057,336.662811 
	C289.934326,338.439087 289.253082,340.473938 290.739258,343.631775 
	C291.773071,345.828552 292.220856,348.301117 293.309021,351.903839 
	C289.781830,349.333313 287.199707,347.451538 284.307312,345.353912 
z"/>
<path fill="#F2C408" opacity="1.000000" stroke="none" 
	d="
M364.247711,184.998535 
	C365.214630,194.674652 370.895905,197.080658 379.532867,196.117828 
	C376.631775,198.442734 372.423920,200.242371 371.215820,203.247818 
	C370.119507,205.975052 372.289490,210.015244 373.296143,214.788498 
	C369.535339,212.332306 366.652100,210.449265 363.637817,208.480637 
	C360.403961,210.756210 357.208435,213.004822 353.967621,215.285294 
	C353.648773,214.667343 353.356628,214.358688 353.422729,214.192444 
	C357.498596,203.939362 357.498901,203.943466 349.087677,197.217178 
	C348.631927,196.852722 348.272278,196.368088 347.627563,195.684647 
	C356.542389,196.514542 362.505707,193.943039 363.341675,184.435425 
	C363.344238,184.406448 363.571320,184.349228 363.658966,184.386475 
	C363.807037,184.449463 363.927429,184.577560 364.247711,184.998535 
z"/>
<path fill="#F7C705" opacity="1.000000" stroke="none" 
	d="
M125.629234,53.005531 
	C129.729538,53.434391 133.471161,53.604088 138.264145,53.821472 
	C134.420380,56.756424 131.427414,59.041721 128.175308,61.524906 
	C129.202240,65.178398 130.239731,68.869370 131.599518,73.707047 
	C127.582748,70.878517 124.630074,68.799309 121.579430,66.651108 
	C118.296097,68.941170 115.118767,71.157295 110.941582,74.070793 
	C112.561203,69.151428 113.763893,65.498428 115.024857,61.668427 
	C111.871658,59.219017 108.790977,56.825939 105.710304,54.432861 
	C115.189323,55.784355 120.524475,52.262466 121.723747,42.449287 
	C122.335739,44.149933 122.966095,45.844254 123.554581,47.552994 
	C124.148193,49.276672 124.700272,51.014656 125.629234,53.005531 
z"/>
<path fill="#F5C606" opacity="1.000000" stroke="none" 
	d="
M323.265137,276.016022 
	C323.063599,275.244812 323.131042,274.141022 323.226501,274.138611 
	C326.700500,274.050293 330.177094,274.064423 333.761688,274.064423 
	C334.506744,271.985199 335.184906,270.133026 335.833557,268.270569 
	C336.402649,266.636597 336.938629,264.991058 338.204559,262.686127 
	C338.829468,273.115295 344.417175,276.191650 353.415955,273.759064 
	C353.415955,274.652313 353.518372,275.137207 353.401337,275.197693 
	C345.281769,279.396729 342.832336,285.322693 347.439819,294.023834 
	C345.930969,292.943115 344.422607,291.861694 342.913116,290.781860 
	C341.308044,289.633636 339.701904,288.486877 337.935486,287.224640 
	C334.743439,289.505035 331.675446,291.696777 328.133331,294.227264 
	C328.230927,292.992950 328.158081,292.240173 328.363220,291.572815 
	C331.264496,282.132874 331.273621,282.135681 323.265137,276.016022 
z"/>
<path fill="#F4C507" opacity="1.000000" stroke="none" 
	d="
M208.845825,377.012177 
	C205.998840,374.958466 203.462280,373.086884 200.710083,371.056213 
	C197.581451,373.301788 194.529587,375.492218 190.619965,378.298340 
	C191.150269,376.115234 191.373825,374.898529 191.742035,373.727295 
	C194.138336,366.104614 194.145767,366.111603 187.594666,361.129425 
	C186.604355,360.376312 185.654449,359.570038 183.887756,358.144287 
	C188.682159,358.144287 192.434067,358.144287 196.472992,358.144287 
	C197.807419,354.230347 199.072601,350.519562 200.337769,346.808777 
	C201.887543,355.912750 206.351166,360.790985 216.546127,358.513519 
	C215.958511,359.131683 215.436951,359.834015 214.773148,360.355164 
	C207.509842,366.057739 207.532440,366.042206 209.967270,374.933899 
	C210.140335,375.565948 209.446823,376.435303 208.845825,377.012177 
z"/>
<path fill="#F7C705" opacity="1.000000" stroke="none" 
	d="
M296.514221,55.569271 
	C296.103760,55.895508 295.960632,55.980827 295.828125,56.080349 
	C288.396393,61.661686 288.405090,61.659592 290.788177,70.894073 
	C290.941864,71.489586 290.808197,72.159256 290.808197,73.632629 
	C287.381348,71.241478 284.454254,69.199020 281.397125,67.065857 
	C278.185852,69.367744 274.987000,71.660721 271.105530,74.443001 
	C272.428925,69.855309 275.107086,65.612755 274.148315,62.485115 
	C273.178314,59.320923 268.608276,57.260334 265.603424,54.706329 
	C265.769897,54.518700 265.954102,54.116962 266.164612,54.102684 
	C269.932159,53.847145 274.692657,54.946213 277.194794,53.052357 
	C279.701111,51.155319 279.953033,46.279835 281.442627,41.991383 
	C282.906219,46.408382 284.128204,50.096275 285.465851,54.133179 
	C289.380951,54.133179 293.180786,54.130863 296.980499,54.151093 
	C297.050812,54.151466 297.205841,54.445679 297.172211,54.558170 
	C297.090576,54.831142 296.920776,55.077747 296.514221,55.569271 
z"/>
<path fill="#F7C705" opacity="1.000000" stroke="none" 
	d="
M108.647697,350.247620 
	C109.599503,346.282104 112.205681,342.147980 111.256790,339.132538 
	C110.302025,336.098480 105.811371,334.177094 101.818924,330.907196 
	C104.758240,330.907196 106.781624,330.675232 108.731750,330.954559 
	C113.038940,331.571594 115.644363,330.321289 116.247429,325.618042 
	C116.514000,323.539093 117.604240,321.565735 118.784012,319.110962 
	C119.705833,328.838104 124.264236,333.578857 134.198120,330.545929 
	C134.061127,331.530334 134.115295,331.994812 133.968994,332.070190 
	C126.185066,336.081085 123.119225,341.631226 129.271881,350.244934 
	C128.749146,350.312439 128.226410,350.379944 127.703682,350.447479 
	C126.194489,349.354919 124.686836,348.260254 123.175667,347.170471 
	C121.699646,346.106018 120.220016,345.046570 118.714859,343.965454 
	C115.315826,346.216553 112.029457,348.393036 108.647697,350.247620 
z"/>
<path fill="#F6C606" opacity="1.000000" stroke="none" 
	d="
M65.649811,109.482391 
	C67.719460,110.166458 69.577820,110.609825 71.459648,110.760925 
	C73.428719,110.919037 75.420341,110.796257 78.925865,110.796257 
	C76.042480,113.038109 74.318001,114.692535 72.312080,115.865799 
	C69.219849,117.674484 68.274361,119.776657 69.915543,123.172394 
	C70.976135,125.366837 71.432098,127.853508 72.482124,131.256348 
	C68.545883,128.416016 65.452782,126.184097 62.041573,123.722626 
	C58.860256,126.040329 55.675095,128.360825 51.828743,131.163040 
	C53.067265,126.582260 55.577305,122.384384 54.682434,119.119858 
	C53.854923,116.101074 49.380714,114.081932 45.973526,111.160393 
	C47.709774,111.017487 49.107586,110.611427 50.387558,110.846642 
	C56.474365,111.965157 59.632183,109.426514 60.392212,103.402863 
	C60.544540,102.195549 61.267677,101.060265 62.151451,98.815056 
	C63.480198,102.964905 64.464523,106.039062 65.649811,109.482391 
z"/>
</svg>