<svg version="1.1" id="Layer_1" xmlns="http://www.w3.org/2000/svg" xmlns:xlink="http://www.w3.org/1999/xlink" x="0px" y="0px"
	 width="100%" viewBox="0 0 225 225" enable-background="new 0 0 225 225" xml:space="preserve">
<path fill="#14141E" opacity="1.000000" stroke="none" 
	d="
M111.000000,226.000000 
	C74.000000,226.000000 37.500004,226.000000 1.000005,226.000000 
	C1.000003,151.000000 1.000003,76.000015 1.000002,1.000015 
	C75.999992,1.000010 150.999985,1.000010 225.999969,1.000005 
	C225.999985,75.999985 225.999985,150.999969 226.000000,225.999969 
	C187.833328,226.000000 149.666672,226.000000 111.000000,226.000000 
M114.318657,95.170753 
	C113.095390,93.614220 111.813736,92.099739 110.657883,90.494659 
	C99.140862,74.501587 84.018494,65.474380 63.844364,67.144905 
	C45.168068,68.691406 31.337091,78.006432 24.217556,95.449715 
	C17.209230,112.620522 19.898972,129.017624 32.180370,143.019501 
	C54.117947,168.030304 94.955322,162.398102 112.773811,131.916199 
	C113.519455,131.519684 114.265099,131.123169 115.270378,131.384018 
	C117.900803,134.817627 120.267403,138.497818 123.206596,141.642868 
	C137.107986,156.517944 153.857040,162.581650 173.896545,156.885513 
	C191.003510,152.022964 202.106827,140.770416 206.429764,123.549789 
	C210.818527,106.066978 205.722321,90.896217 192.580612,78.893539 
	C169.412811,57.733761 132.093796,65.227547 115.327629,94.272835 
	C115.227875,94.620277 115.128120,94.967712 114.318657,95.170753 
z"/>
<path fill="#FA6B03" opacity="1.000000" stroke="none" 
	d="
M112.214798,132.294144 
	C94.955322,162.398102 54.117947,168.030304 32.180370,143.019501 
	C19.898972,129.017624 17.209230,112.620522 24.217556,95.449715 
	C31.337091,78.006432 45.168068,68.691406 63.844364,67.144905 
	C84.018494,65.474380 99.140862,74.501587 110.657883,90.494659 
	C111.813736,92.099739 113.095390,93.614220 114.676132,95.588364 
	C118.338150,102.004387 121.642700,108.002808 125.171280,114.257050 
	C129.374878,120.049774 132.990570,125.898384 137.410629,131.057922 
	C146.286636,141.418884 158.065903,143.774475 170.510803,140.020096 
	C185.036194,135.638077 192.464020,119.148743 187.938583,103.794098 
	C183.675003,89.327858 169.188202,81.169518 153.929871,84.576096 
	C147.157593,86.088081 141.542068,89.590462 137.171539,94.815063 
	C133.122971,99.654800 129.563751,104.903870 125.649170,109.659805 
	C122.266411,104.218315 119.023529,99.089706 115.780640,93.961090 
	C132.093796,65.227547 169.412811,57.733761 192.580612,78.893539 
	C205.722321,90.896217 210.818527,106.066978 206.429764,123.549789 
	C202.106827,140.770416 191.003510,152.022964 173.896545,156.885513 
	C153.857040,162.581650 137.107986,156.517944 123.206596,141.642868 
	C120.267403,138.497818 117.900803,134.817627 115.026794,130.751205 
	C111.125305,124.736336 107.467407,119.354286 103.805809,113.618370 
	C99.405617,104.203461 93.848282,95.977654 85.774345,89.802025 
	C74.227631,80.970146 57.573360,81.899857 47.789497,91.691032 
	C36.820618,102.668129 36.389431,121.526253 46.846107,132.950546 
	C57.126030,144.181732 75.341675,145.152481 87.356613,134.368347 
	C92.598953,129.663040 96.547577,123.516388 101.411072,118.108826 
	C105.230560,122.893616 108.722679,127.593880 112.214798,132.294144 
z"/>
<path fill="#D55806" opacity="1.000000" stroke="none" 
	d="
M112.494308,132.105164 
	C108.722679,127.593880 105.230560,122.893616 101.469162,117.800201 
	C102.069763,116.262108 102.939636,115.117172 103.809509,113.972237 
	C107.467407,119.354286 111.125305,124.736336 114.896973,130.422516 
	C114.265099,131.123169 113.519455,131.519684 112.494308,132.105164 
z"/>
<path fill="#D25706" opacity="1.000000" stroke="none" 
	d="
M124.947235,114.001228 
	C121.642700,108.002808 118.338150,102.004387 115.030983,95.660568 
	C115.128120,94.967712 115.227875,94.620277 115.554138,94.116959 
	C119.023529,99.089706 122.266411,104.218315 125.591171,110.004272 
	C125.431099,111.774811 125.189163,112.888016 124.947235,114.001228 
z"/>
<path fill="#16141E" opacity="1.000000" stroke="none" 
	d="
M103.805809,113.618370 
	C102.939636,115.117172 102.069763,116.262108 101.141800,117.715675 
	C96.547577,123.516388 92.598953,129.663040 87.356613,134.368347 
	C75.341675,145.152481 57.126030,144.181732 46.846107,132.950546 
	C36.389431,121.526253 36.820618,102.668129 47.789497,91.691032 
	C57.573360,81.899857 74.227631,80.970146 85.774345,89.802025 
	C93.848282,95.977654 99.405617,104.203461 103.805809,113.618370 
z"/>
<path fill="#15141E" opacity="1.000000" stroke="none" 
	d="
M125.171280,114.257050 
	C125.189163,112.888016 125.431099,111.774811 125.731033,110.317139 
	C129.563751,104.903870 133.122971,99.654800 137.171539,94.815063 
	C141.542068,89.590462 147.157593,86.088081 153.929871,84.576096 
	C169.188202,81.169518 183.675003,89.327858 187.938583,103.794098 
	C192.464020,119.148743 185.036194,135.638077 170.510803,140.020096 
	C158.065903,143.774475 146.286636,141.418884 137.410629,131.057922 
	C132.990570,125.898384 129.374878,120.049774 125.171280,114.257050 
z"/>
</svg>