<svg version="1.1" id="Layer_1" xmlns="http://www.w3.org/2000/svg" xmlns:xlink="http://www.w3.org/1999/xlink" x="0px" y="0px"
	 width="100%" viewBox="0 0 400 400" enable-background="new 0 0 400 400" xml:space="preserve">
<path fill="#000000" opacity="1.000000" stroke="none" 
	d="
M190.000000,401.000000 
	C126.686302,401.000000 63.872597,401.000000 1.029448,401.000000 
	C1.029448,267.727966 1.029448,134.455917 1.029448,1.091938 
	C134.230316,1.091938 267.460724,1.091938 400.845581,1.091938 
	C400.845581,134.333191 400.845581,267.666565 400.845581,401.000000 
	C330.789337,401.000000 260.644653,401.000000 190.000000,401.000000 
M245.980179,283.185730 
	C259.459778,282.443146 269.336853,275.957703 275.450134,264.058289 
	C285.025574,245.419876 294.307922,226.631134 303.786102,207.942413 
	C306.153107,203.275192 306.205353,198.799622 303.829071,194.119995 
	C294.265778,175.287155 284.913239,156.346207 275.223602,137.579041 
	C268.966095,125.459282 258.725647,118.934372 245.062225,118.835365 
	C215.570633,118.621674 186.075317,118.624985 156.583740,118.840607 
	C143.325623,118.937531 133.112045,125.196503 127.004890,136.881683 
	C116.994987,156.034225 107.568596,175.491623 97.882393,194.813583 
	C95.793457,198.980576 95.838921,203.079178 97.926247,207.249161 
	C107.377113,226.129730 116.636528,245.108017 126.270653,263.894318 
	C132.852142,276.728027 143.593140,283.243591 158.145279,283.236359 
	C187.138428,283.221924 216.131592,283.226868 245.980179,283.185730 
z"/>
<path fill="#FBFBFB" opacity="1.000000" stroke="none" 
	d="
M245.552460,283.204773 
	C216.131592,283.226868 187.138428,283.221924 158.145279,283.236359 
	C143.593140,283.243591 132.852142,276.728027 126.270653,263.894318 
	C116.636528,245.108017 107.377113,226.129730 97.926247,207.249161 
	C95.838921,203.079178 95.793457,198.980576 97.882393,194.813583 
	C107.568596,175.491623 116.994987,156.034225 127.004890,136.881683 
	C133.112045,125.196503 143.325623,118.937531 156.583740,118.840607 
	C186.075317,118.624985 215.570633,118.621674 245.062225,118.835365 
	C258.725647,118.934372 268.966095,125.459282 275.223602,137.579041 
	C284.913239,156.346207 294.265778,175.287155 303.829071,194.119995 
	C306.205353,198.799622 306.153107,203.275192 303.786102,207.942413 
	C294.307922,226.631134 285.025574,245.419876 275.450134,264.058289 
	C269.336853,275.957703 259.459778,282.443146 245.552460,283.204773 
M207.247482,238.499863 
	C207.247482,249.092331 207.247482,259.684784 207.247482,270.429810 
	C220.864639,270.429810 233.832901,270.755371 246.774750,270.311188 
	C254.907684,270.032104 260.644104,265.270691 264.285828,258.038269 
	C273.331543,240.073425 282.448914,222.143784 291.313690,204.090134 
	C292.150940,202.384979 292.127350,199.550156 291.286621,197.836960 
	C282.499817,179.932266 273.430756,162.166397 264.511932,144.326050 
	C260.105835,135.512512 252.939377,131.349503 243.233154,131.322418 
	C232.570740,131.292679 221.908096,131.309631 211.245697,131.343628 
	C209.979446,131.347656 208.713959,131.586670 207.019470,131.760818 
	C207.019470,152.188095 207.019470,172.267624 207.019470,192.259430 
	C202.766373,192.259430 198.984116,192.259430 194.718399,192.259430 
	C194.718399,171.984238 194.718399,151.917084 194.718399,131.767624 
	C180.626297,131.767624 167.008011,131.372009 153.429230,131.933060 
	C146.549515,132.217316 141.300095,136.677353 138.181046,142.770370 
	C128.711166,161.269669 119.472023,179.887665 110.269730,198.522018 
	C109.652168,199.772568 109.526184,201.821854 110.121643,203.032272 
	C119.367989,221.827591 128.673157,240.595795 138.195770,259.252319 
	C141.218811,265.174988 146.299759,269.673065 152.966309,269.961731 
	C166.703476,270.556610 180.484406,270.140717 194.737885,270.140717 
	C194.737885,250.240005 194.737885,230.348618 194.737885,210.308426 
	C199.135483,210.308426 203.038025,210.308426 207.247482,210.308426 
	C207.247482,219.559906 207.247482,228.529877 207.247482,238.499863 
z"/>
<path fill="#030303" opacity="1.000000" stroke="none" 
	d="
M207.247482,237.999847 
	C207.247482,228.529877 207.247482,219.559906 207.247482,210.308426 
	C203.038025,210.308426 199.135483,210.308426 194.737885,210.308426 
	C194.737885,230.348618 194.737885,250.240005 194.737885,270.140717 
	C180.484406,270.140717 166.703476,270.556610 152.966309,269.961731 
	C146.299759,269.673065 141.218811,265.174988 138.195770,259.252319 
	C128.673157,240.595795 119.367989,221.827591 110.121643,203.032272 
	C109.526184,201.821854 109.652168,199.772568 110.269730,198.522018 
	C119.472023,179.887665 128.711166,161.269669 138.181046,142.770370 
	C141.300095,136.677353 146.549515,132.217316 153.429230,131.933060 
	C167.008011,131.372009 180.626297,131.767624 194.718399,131.767624 
	C194.718399,151.917084 194.718399,171.984238 194.718399,192.259430 
	C198.984116,192.259430 202.766373,192.259430 207.019470,192.259430 
	C207.019470,172.267624 207.019470,152.188095 207.019470,131.760818 
	C208.713959,131.586670 209.979446,131.347656 211.245697,131.343628 
	C221.908096,131.309631 232.570740,131.292679 243.233154,131.322418 
	C252.939377,131.349503 260.105835,135.512512 264.511932,144.326050 
	C273.430756,162.166397 282.499817,179.932266 291.286621,197.836960 
	C292.127350,199.550156 292.150940,202.384979 291.313690,204.090134 
	C282.448914,222.143784 273.331543,240.073425 264.285828,258.038269 
	C260.644104,265.270691 254.907684,270.032104 246.774750,270.311188 
	C233.832901,270.755371 220.864639,270.429810 207.247482,270.429810 
	C207.247482,259.684784 207.247482,249.092331 207.247482,237.999847 
z"/>
</svg>