<svg version="1.1" id="Layer_1" xmlns="http://www.w3.org/2000/svg" xmlns:xlink="http://www.w3.org/1999/xlink" x="0px" y="0px"
	 width="100%" viewBox="0 0 143 121" enable-background="new 0 0 143 121" xml:space="preserve">
<path fill="#FFFFFF" opacity="1.000000" stroke="none" 
	d="
M136.000000,1.000000 
	C138.659821,1.000000 141.319656,1.000000 143.984619,0.999998 
	C143.989746,41.223034 143.989746,81.446068 143.989746,122.000000 
	C130.314209,122.000000 116.625763,122.000000 102.468750,121.581017 
	C102.256889,119.542816 102.954254,117.829185 102.633835,116.333611 
	C102.367249,115.089325 100.904907,114.101227 99.840157,112.546722 
	C99.672310,84.103569 99.636520,56.113354 99.903473,27.987524 
	C100.815231,26.470903 101.424248,25.089901 102.477966,23.563272 
	C112.875000,23.421614 122.827347,23.425581 132.842407,23.779593 
	C134.423737,25.065697 135.948700,26.018734 135.989334,22.512451 
	C135.998199,15.030137 135.999100,8.015069 136.000000,1.000000 
z"/>
<path fill="#010001" opacity="1.000000" stroke="none" 
	d="
M132.779694,23.429546 
	C122.827347,23.425581 112.875000,23.421614 102.208542,23.399681 
	C100.701675,23.608984 99.908920,23.836254 98.819321,23.902386 
	C98.305099,23.682516 98.087723,23.623785 97.539719,23.359848 
	C90.769669,23.395943 84.330231,23.637245 77.518463,23.989113 
	C76.989136,26.708145 76.832130,29.316612 76.672470,32.397861 
	C76.618767,59.555805 76.567711,86.240967 76.349419,112.908173 
	C76.182190,112.890228 75.848724,112.952789 75.569107,113.013031 
	C74.996780,113.399979 74.704063,113.726685 74.411346,114.053391 
	C74.901199,114.375137 75.391052,114.696884 75.914444,115.414825 
	C75.966522,116.871254 75.985062,117.931503 75.998802,119.201477 
	C75.994003,119.411201 75.939568,119.827217 75.923782,119.931015 
	C75.907997,120.034805 76.072922,120.164772 75.605392,120.087082 
	C68.357239,120.009384 61.576622,120.009384 54.489246,120.009384 
	C54.489246,112.177307 54.528908,104.745346 54.480656,97.313957 
	C54.391312,83.553062 54.250534,69.792496 54.301167,55.686195 
	C54.580299,54.069363 54.689445,52.798130 54.866806,51.141930 
	C54.952019,50.496861 54.969017,50.236767 54.998161,49.509598 
	C55.020496,43.555214 55.149563,38.064571 54.995689,32.581867 
	C54.905258,29.359613 54.365089,26.149981 53.999973,22.691090 
	C53.972740,22.447512 53.812584,21.982832 53.910831,21.715611 
	C54.066383,20.949596 54.123684,20.450804 54.324692,19.509146 
	C54.645603,13.044187 54.822800,7.022093 55.000000,1.000000 
	C55.444447,1.000000 55.888889,1.000000 56.755188,1.167866 
	C57.451359,1.223821 57.725681,1.111910 58.000000,0.999999 
	C83.687561,1.000000 109.375122,1.000000 135.531342,1.000000 
	C135.999100,8.015069 135.998199,15.030137 135.579041,22.521843 
	C134.367096,23.142166 133.573395,23.285856 132.779694,23.429546 
z"/>
<path fill="#FFFFFF" opacity="1.000000" stroke="none" 
	d="
M54.131180,56.031796 
	C54.250534,69.792496 54.391312,83.553062 54.480656,97.313957 
	C54.528908,104.745346 54.489246,112.177307 54.489246,120.009384 
	C61.576622,120.009384 68.357239,120.009384 75.707314,120.323898 
	C76.517853,121.092278 76.758926,121.546135 77.000000,122.000000 
	C51.732800,122.000000 26.465599,122.000000 1.000000,122.000000 
	C1.000000,91.646057 1.000000,61.291687 1.376665,30.513035 
	C2.832863,31.580858 4.746652,33.026897 4.832068,34.573891 
	C5.067613,38.839878 4.178226,43.172302 4.464339,47.429344 
	C4.605901,49.535633 5.848598,52.419823 7.501064,53.365540 
	C9.768618,54.663273 12.938655,54.998291 15.651937,54.797878 
	C28.156424,53.874279 40.638908,52.543266 53.182045,56.002541 
	C53.624699,56.027481 53.877800,56.034626 54.131180,56.031796 
z"/>
<path fill="#FFFFFE" opacity="1.000000" stroke="none" 
	d="
M54.750000,1.000000 
	C54.822800,7.022093 54.645603,13.044187 54.127380,19.501217 
	C53.524986,19.971060 53.262463,19.987289 52.779423,19.731678 
	C51.768223,19.549257 50.974842,19.695507 50.184780,19.679325 
	C39.786491,19.466347 29.389240,19.195044 18.990284,19.028360 
	C16.742702,18.992334 13.743488,20.305286 12.379420,19.280766 
	C8.378718,16.275930 4.822667,17.321152 1.000000,19.000000 
	C1.000000,13.037754 1.000000,7.075508 1.000000,1.000000 
	C18.020748,1.000000 35.041718,1.000000 52.625599,1.176615 
	C53.459011,1.235487 53.729504,1.117744 54.000000,1.000000 
	C54.000000,1.000000 54.500000,1.000000 54.750000,1.000000 
z"/>
<path fill="#FEFDFC" opacity="1.000000" stroke="none" 
	d="
M1.000000,19.458069 
	C4.822667,17.321152 8.378718,16.275930 12.379420,19.280766 
	C13.743488,20.305286 16.742702,18.992334 18.990284,19.028360 
	C29.389240,19.195044 39.786491,19.466347 50.184780,19.679325 
	C50.974842,19.695507 51.768223,19.549257 52.778839,20.060530 
	C52.986721,21.080282 52.975822,21.518017 52.764885,22.048662 
	C52.300045,22.291813 52.101910,22.504238 51.627853,22.843517 
	C50.836735,23.012594 50.388206,23.117004 49.478855,23.157578 
	C38.363644,23.132904 27.709249,23.172071 16.622993,23.090508 
	C13.810269,23.004967 11.429406,23.040163 9.003871,22.920811 
	C8.866879,22.711105 8.774561,22.655945 8.682243,22.600784 
	C8.811763,22.749550 8.941283,22.898312 9.037350,23.290794 
	C9.003897,23.534517 9.071770,24.021830 8.943387,24.257053 
	C8.870817,24.661987 8.926630,24.831696 8.871080,25.458614 
	C8.834243,33.280205 8.908768,40.644585 8.891261,48.267803 
	C8.844518,48.704090 8.889805,48.881542 9.042374,49.386932 
	C9.798095,49.690613 10.446534,49.666351 11.555903,49.677193 
	C24.681625,49.817795 37.346420,49.923286 50.014397,50.400406 
	C51.009125,52.512932 52.000668,54.253826 52.992210,55.994717 
	C40.638908,52.543266 28.156424,53.874279 15.651937,54.797878 
	C12.938655,54.998291 9.768618,54.663273 7.501064,53.365540 
	C5.848598,52.419823 4.605901,49.535633 4.464339,47.429344 
	C4.178226,43.172302 5.067613,38.839878 4.832068,34.573891 
	C4.746652,33.026897 2.832863,31.580858 1.376665,30.044378 
	C1.000000,26.638712 1.000000,23.277426 1.000000,19.458069 
z"/>
<path fill="#FFFBFB" opacity="1.000000" stroke="none" 
	d="
M77.468651,122.000000 
	C76.758926,121.546135 76.517853,121.092278 76.174850,120.401596 
	C76.072922,120.164772 75.907997,120.034805 76.203644,119.994911 
	C76.701439,119.648422 76.903580,119.341835 77.332352,119.018311 
	C77.558990,119.001366 77.986435,118.846764 78.451103,118.919380 
	C85.572792,118.944359 92.229813,118.896729 99.260864,118.731613 
	C99.620430,117.333458 99.605957,116.052795 99.615341,114.466553 
	C99.750198,113.773880 99.861206,113.386765 99.972214,112.999657 
	C100.904907,114.101227 102.367249,115.089325 102.633835,116.333611 
	C102.954254,117.829185 102.256889,119.542816 102.000092,121.581017 
	C93.979103,122.000000 85.958199,122.000000 77.468651,122.000000 
z"/>
<path fill="#070707" opacity="1.000000" stroke="none" 
	d="
M57.750000,0.999999 
	C57.725681,1.111910 57.451359,1.223821 57.088520,1.167866 
	C57.000000,1.000000 57.500000,1.000000 57.750000,0.999999 
z"/>
<path fill="#EEEEEE" opacity="1.000000" stroke="none" 
	d="
M53.750000,1.000000 
	C53.729504,1.117744 53.459011,1.235487 53.094257,1.176615 
	C53.000000,1.000000 53.500000,1.000000 53.750000,1.000000 
z"/>
<path fill="#B21317" opacity="1.000000" stroke="none" 
	d="
M99.840157,112.546722 
	C99.861206,113.386765 99.750198,113.773880 99.353897,114.483170 
	C98.735840,114.909607 98.403069,115.013863 98.045654,114.640915 
	C98.003098,84.454216 97.985184,54.744709 97.982224,24.804544 
	C97.997185,24.573887 98.031891,24.112906 98.012535,23.969740 
	C97.993179,23.826574 97.870338,23.565054 97.870338,23.565054 
	C98.087723,23.623785 98.305099,23.682516 98.770157,24.255714 
	C99.212128,25.887833 99.406433,27.005487 99.600739,28.123142 
	C99.636520,56.113354 99.672310,84.103569 99.840157,112.546722 
z"/>
<path fill="#FFEBEC" opacity="1.000000" stroke="none" 
	d="
M99.903473,27.987524 
	C99.406433,27.005487 99.212128,25.887833 99.066994,24.416851 
	C99.908920,23.836254 100.701675,23.608984 101.763855,23.545307 
	C101.424248,25.089901 100.815231,26.470903 99.903473,27.987524 
z"/>
<path fill="#929191" opacity="1.000000" stroke="none" 
	d="
M132.842407,23.779591 
	C133.573395,23.285856 134.367096,23.142166 135.571075,22.989088 
	C135.948700,26.018734 134.423737,25.065697 132.842407,23.779591 
z"/>
<path fill="#B5292C" opacity="1.000000" stroke="none" 
	d="
M76.516647,112.926125 
	C76.567711,86.240967 76.618767,59.555805 76.991745,32.426834 
	C77.525917,31.971600 77.738152,31.960182 77.973129,32.421806 
	C77.989700,59.593079 77.983543,86.291313 77.759933,112.987701 
	C77.542480,112.985863 77.107925,112.968086 76.960670,112.949615 
	C76.813416,112.931152 76.516647,112.926125 76.516647,112.926125 
z"/>
<path fill="#550000" opacity="1.000000" stroke="none" 
	d="
M54.027206,22.934669 
	C54.365089,26.149981 54.905258,29.359613 54.995689,32.581867 
	C55.149563,38.064571 55.020496,43.555214 54.729038,49.526676 
	C54.268482,50.026093 54.089207,50.041359 53.676895,50.038036 
	C53.443859,50.019451 52.999416,50.164616 53.028610,50.089508 
	C53.057800,50.014400 53.017609,49.858337 52.995464,49.540592 
	C52.931576,48.799873 52.889832,48.376904 52.902748,47.491188 
	C52.967491,39.700962 52.977570,32.373482 53.084614,24.765842 
	C53.170673,24.095724 53.159763,23.705767 53.370056,23.224243 
	C53.591259,23.132681 54.027210,22.934669 54.027206,22.934669 
z"/>
<path fill="#640001" opacity="1.000000" stroke="none" 
	d="
M77.890800,23.878546 
	C84.330231,23.637245 90.769669,23.395943 97.539719,23.359848 
	C97.870338,23.565054 97.993179,23.826574 97.542305,23.928169 
	C90.805840,24.068035 84.520248,24.106306 78.147911,24.079082 
	C78.061165,24.013584 77.890800,23.878546 77.890800,23.878546 
z"/>
<path fill="#FFFAF6" opacity="1.000000" stroke="none" 
	d="
M53.182045,56.002541 
	C52.000668,54.253826 51.009125,52.512932 49.899502,50.327354 
	C49.781418,49.882671 49.878269,49.628117 50.153553,49.777988 
	C50.637283,49.913200 50.845726,49.898544 51.380234,49.951962 
	C52.143398,49.966141 52.580505,49.912239 53.017609,49.858337 
	C53.017609,49.858337 53.057800,50.014400 53.136292,50.277943 
	C53.406086,50.771599 53.644756,50.930649 54.131104,51.174114 
	C54.487137,51.395359 54.642864,51.461132 54.798595,51.526901 
	C54.689445,52.798130 54.580299,54.069363 54.301167,55.686195 
	C53.877800,56.034626 53.624699,56.027481 53.182045,56.002541 
z"/>
<path fill="#5B1819" opacity="1.000000" stroke="none" 
	d="
M77.950394,31.948765 
	C77.738152,31.960182 77.525917,31.971600 76.994400,31.954048 
	C76.832130,29.316612 76.989136,26.708145 77.518463,23.989113 
	C77.890800,23.878546 78.061165,24.013584 78.098747,24.306862 
	C78.136330,24.600140 78.185463,25.064152 78.121994,25.491034 
	C78.022484,27.928198 77.986435,29.938482 77.950394,31.948765 
z"/>
<path fill="#5B1819" opacity="1.000000" stroke="none" 
	d="
M77.986435,118.846764 
	C77.986435,118.846764 77.558990,119.001366 77.056870,119.003815 
	C76.371025,119.001427 76.187309,118.996590 76.003601,118.991745 
	C75.985062,117.931503 75.966522,116.871254 75.954071,115.070786 
	C75.923004,113.871307 75.885864,113.412048 75.848724,112.952789 
	C75.848724,112.952789 76.182190,112.890228 76.349419,112.908173 
	C76.516647,112.926125 76.813416,112.931152 76.932297,113.252029 
	C77.345047,114.057846 77.638916,114.542786 77.963257,115.392761 
	C78.033409,116.488182 78.073105,117.218559 78.074799,118.172501 
	C78.036812,118.396057 77.986435,118.846764 77.986435,118.846764 
z"/>
<path fill="#110000" opacity="1.000000" stroke="none" 
	d="
M75.569107,113.013031 
	C75.885864,113.412048 75.923004,113.871307 75.920525,114.674599 
	C75.391052,114.696884 74.901199,114.375137 74.411346,114.053391 
	C74.704063,113.726685 74.996780,113.399979 75.569107,113.013031 
z"/>
<path fill="#EEEEEE" opacity="1.000000" stroke="none" 
	d="
M52.964924,21.955751 
	C52.975822,21.518017 52.986721,21.080282 52.998199,20.313696 
	C53.262463,19.987289 53.524986,19.971060 53.983673,19.944084 
	C54.123684,20.450804 54.066383,20.949596 53.698776,21.713184 
	C53.388474,21.977982 52.964924,21.955751 52.964924,21.955751 
z"/>
<path fill="#FFE1E2" opacity="1.000000" stroke="none" 
	d="
M52.764885,22.048662 
	C52.964924,21.955751 53.388474,21.977982 53.600529,21.980408 
	C53.812584,21.982832 53.972740,22.447512 53.999977,22.691090 
	C54.027210,22.934669 53.591259,23.132681 53.081955,23.075413 
	C52.371918,22.938381 52.171181,22.858616 51.970440,22.778851 
	C52.101910,22.504238 52.300045,22.291813 52.764885,22.048662 
z"/>
<path fill="#110000" opacity="1.000000" stroke="none" 
	d="
M75.998795,119.201477 
	C76.187309,118.996590 76.371025,119.001427 76.830231,119.020760 
	C76.903580,119.341835 76.701439,119.648422 76.219437,119.891113 
	C75.939568,119.827217 75.994003,119.411201 75.998795,119.201477 
z"/>
<path fill="#180000" opacity="1.000000" stroke="none" 
	d="
M54.866806,51.141930 
	C54.642864,51.461132 54.487137,51.395359 54.164120,50.932793 
	C53.996826,50.535995 53.909931,50.056622 53.909931,50.056622 
	C54.089207,50.041359 54.268482,50.026093 54.716888,49.993752 
	C54.969017,50.236767 54.952019,50.496861 54.866806,51.141930 
z"/>
<path fill="#C80009" opacity="1.000000" stroke="none" 
	d="
M52.987644,25.046000 
	C52.977570,32.373482 52.967491,39.700962 52.448833,47.507030 
	C37.621265,47.993404 23.302279,48.001186 8.983293,48.008968 
	C8.908768,40.644585 8.834243,33.280205 9.233553,25.459663 
	C10.794517,24.696730 11.881644,24.389954 13.373079,24.059706 
	C14.856969,24.058474 15.936550,24.080713 17.325251,24.378841 
	C28.437593,24.762177 39.240818,24.869621 50.411762,24.988529 
	C51.515537,25.015326 52.251591,25.030663 52.987644,25.046000 
z"/>
<path fill="#AE0910" opacity="1.000000" stroke="none" 
	d="
M8.891261,48.267803 
	C23.302279,48.001186 37.621265,47.993404 52.394165,47.969772 
	C52.889832,48.376904 52.931576,48.799873 52.995464,49.540592 
	C52.580505,49.912239 52.143398,49.966141 51.293686,49.757896 
	C50.546806,49.539879 50.212540,49.583996 49.878269,49.628117 
	C49.878269,49.628117 49.781418,49.882671 49.896317,49.955727 
	C37.346420,49.923286 24.681625,49.817795 11.353886,49.461140 
	C10.105657,49.159645 9.520374,49.109318 8.935091,49.058990 
	C8.889805,48.881542 8.844518,48.704090 8.891261,48.267803 
z"/>
<path fill="#BA040A" opacity="1.000000" stroke="none" 
	d="
M50.044044,24.977066 
	C39.240818,24.869621 28.437593,24.762177 17.353088,24.156296 
	C17.071808,23.657860 17.054857,23.211241 17.054857,23.211241 
	C27.709249,23.172071 38.363644,23.132904 49.470100,23.451281 
	C49.962788,24.198238 50.003414,24.587652 50.044044,24.977066 
z"/>
<path fill="#BE383D" opacity="1.000000" stroke="none" 
	d="
M16.622993,23.090508 
	C17.054857,23.211241 17.071808,23.657860 17.043970,23.880405 
	C15.936550,24.080713 14.856969,24.058474 12.985289,24.030474 
	C11.152718,24.023752 10.112244,24.022791 9.071770,24.021830 
	C9.071770,24.021830 9.003897,23.534517 9.000351,23.272400 
	C8.996804,23.010284 9.048544,23.075359 9.048544,23.075359 
	C11.429406,23.040163 13.810269,23.004967 16.622993,23.090508 
z"/>
<path fill="#BE383D" opacity="1.000000" stroke="none" 
	d="
M50.411766,24.988529 
	C50.003414,24.587652 49.962788,24.198238 49.930916,23.515121 
	C50.388206,23.117004 50.836735,23.012594 51.627853,22.843517 
	C52.171181,22.858616 52.371918,22.938381 52.860756,23.166977 
	C53.159763,23.705767 53.170673,24.095724 53.084614,24.765842 
	C52.251591,25.030663 51.515537,25.015326 50.411766,24.988529 
z"/>
<path fill="#BA040A" opacity="1.000000" stroke="none" 
	d="
M8.943387,24.257053 
	C10.112244,24.022791 11.152718,24.023752 12.580982,24.053946 
	C11.881644,24.389954 10.794517,24.696730 9.344916,25.002455 
	C8.926630,24.831696 8.870817,24.661987 8.943387,24.257053 
z"/>
<path fill="#C9666D" opacity="1.000000" stroke="none" 
	d="
M9.042374,49.386932 
	C9.520374,49.109318 10.105657,49.159645 10.892956,49.426033 
	C10.446534,49.666351 9.798095,49.690613 9.042374,49.386932 
z"/>
<path fill="#FFE1E2" opacity="1.000000" stroke="none" 
	d="
M9.033804,23.028679 
	C8.941283,22.898312 8.811763,22.749550 8.682243,22.600784 
	C8.774561,22.655945 8.866879,22.711105 9.003871,22.920811 
	C9.048544,23.075359 8.996804,23.010284 9.033804,23.028679 
z"/>
<path fill="#A50E12" opacity="1.000000" stroke="none" 
	d="
M78.451103,118.919380 
	C77.986435,118.846764 78.036812,118.396057 78.531815,118.190430 
	C85.355980,117.968788 91.685143,117.952774 98.219086,118.026237 
	C98.699028,118.283882 98.853348,118.528343 98.886833,118.849091 
	C92.229813,118.896729 85.572792,118.944359 78.451103,118.919380 
z"/>
<path fill="#D57A7B" opacity="1.000000" stroke="none" 
	d="
M99.260864,118.731613 
	C98.853348,118.528343 98.699028,118.283882 98.214569,117.674507 
	C98.026955,116.528244 98.048630,115.823181 98.070297,115.118118 
	C98.403069,115.013863 98.735840,114.909607 99.330048,114.788742 
	C99.605957,116.052795 99.620430,117.333458 99.260864,118.731613 
z"/>
<path fill="#C8000A" opacity="1.000000" stroke="none" 
	d="
M98.045654,114.640915 
	C98.048630,115.823181 98.026955,116.528244 98.009796,117.585037 
	C91.685143,117.952774 85.355980,117.968788 78.569809,117.966873 
	C78.073105,117.218559 78.033409,116.488182 78.200821,115.248993 
	C78.264412,114.156639 78.120903,113.573097 77.977386,112.989548 
	C77.983543,86.291313 77.989700,59.593079 77.973122,32.421806 
	C77.986435,29.938482 78.022484,27.928198 78.572021,25.473766 
	C85.379433,25.031479 91.673355,25.033340 97.967270,25.035202 
	C97.985184,54.744709 98.003098,84.454216 98.045654,114.640915 
z"/>
<path fill="#AE0910" opacity="1.000000" stroke="none" 
	d="
M97.982224,24.804544 
	C91.673355,25.033340 85.379433,25.031479 78.635490,25.046886 
	C78.185463,25.064152 78.136330,24.600140 78.185493,24.372360 
	C84.520248,24.106306 90.805840,24.068035 97.561661,24.071335 
	C98.031891,24.112906 97.997185,24.573887 97.982224,24.804544 
z"/>
<path fill="#C0070D" opacity="1.000000" stroke="none" 
	d="
M77.759933,112.987701 
	C78.120903,113.573097 78.264412,114.156639 78.170364,114.883957 
	C77.638916,114.542786 77.345047,114.057846 77.079544,113.270493 
	C77.107925,112.968086 77.542480,112.985863 77.759933,112.987701 
z"/>
<path fill="#EEEEEE" opacity="1.000000" stroke="none" 
	d="
M53.676895,50.038036 
	C53.909931,50.056622 53.996826,50.535995 53.963810,50.777317 
	C53.644756,50.930649 53.406086,50.771599 53.107101,50.353050 
	C52.999416,50.164616 53.443859,50.019451 53.676895,50.038036 
z"/>
<path fill="#C9666D" opacity="1.000000" stroke="none" 
	d="
M50.153553,49.777988 
	C50.212540,49.583996 50.546806,49.539879 50.967621,49.689819 
	C50.845726,49.898544 50.637283,49.913200 50.153553,49.777988 
z"/>
</svg>