<svg version="1.1" id="Layer_1" xmlns="http://www.w3.org/2000/svg" xmlns:xlink="http://www.w3.org/1999/xlink" x="0px" y="0px"
	 width="100%" viewBox="0 0 420 409" enable-background="new 0 0 420 409" xml:space="preserve">
<path fill="#FEFEFE" opacity="1.000000" stroke="none" 
	d="
M249.000000,1.000001 
	C306.317474,1.000000 363.634979,1.000000 420.976227,1.000000 
	C420.976227,137.279785 420.976227,273.559570 420.976227,409.919678 
	C281.092316,409.919678 141.184540,409.919678 1.138391,409.919678 
	C1.138391,273.666748 1.138391,137.333405 1.138391,1.000000 
	C56.428093,1.000000 111.746193,1.000000 167.185043,1.244513 
	C168.151367,2.694842 168.815628,4.095171 169.869476,5.077566 
	C188.390198,22.342533 199.424362,44.013680 206.945969,67.775108 
	C207.292786,68.870674 207.856903,69.897453 208.691101,71.805534 
	C209.395859,70.213539 209.701126,69.665283 209.888947,69.079376 
	C217.790680,44.430332 228.986847,21.724947 248.239639,3.724289 
	C248.827911,3.174289 248.761307,1.923873 249.000000,1.000001 
M74.505829,144.918304 
	C52.518650,138.426086 30.190493,135.529312 7.410148,137.854782 
	C7.410148,186.080811 7.410148,233.615799 7.410148,281.327972 
	C87.633339,288.787048 150.318008,325.536285 195.372864,392.417023 
	C195.055130,383.624542 194.301926,375.389282 193.372360,367.173981 
	C190.940994,345.686340 188.403229,324.210754 185.962784,302.724152 
	C183.300949,279.288391 181.362167,255.734863 173.006042,233.349380 
	C166.552505,216.060776 157.686020,200.252136 144.979538,186.763840 
	C125.697624,166.295502 101.770088,153.557220 74.505829,144.918304 
M223.317825,371.846985 
	C222.599701,378.563629 221.881561,385.280243 221.163422,391.996887 
	C221.605789,392.168579 222.048141,392.340240 222.490509,392.511932 
	C266.987640,325.193085 329.844849,288.783295 409.638000,281.294067 
	C409.638000,233.218613 409.638000,185.666031 409.638000,137.713425 
	C406.316345,137.499496 403.350983,137.221069 400.379883,137.130890 
	C374.912201,136.357895 350.321167,140.866287 326.796783,150.446564 
	C305.195526,159.243683 285.607513,171.301422 270.020081,189.059525 
	C248.738770,213.304443 238.501144,242.263321 234.629578,273.724915 
	C230.645828,306.098297 227.165375,338.533630 223.317825,371.846985 
M188.853256,193.624832 
	C189.058167,193.819839 189.263092,194.014847 189.468002,194.209839 
	C189.654663,194.003571 190.012238,193.789505 190.003250,193.592148 
	C189.685349,186.614731 189.602051,179.613205 188.939194,172.667236 
	C186.037247,142.258514 180.601440,112.436165 168.069305,84.279556 
	C159.913406,65.955276 147.814407,51.023560 131.466156,39.263733 
	C110.130913,23.916603 86.541107,13.760684 61.276283,7.145685 
	C59.139595,6.586244 56.936554,6.280234 54.502716,5.805450 
	C54.502716,34.677895 54.502716,62.758789 54.502716,90.059464 
	C70.794609,96.158203 86.888229,101.448814 102.366455,108.158936 
	C122.626198,116.941940 140.713745,129.266235 155.918808,145.489685 
	C169.195129,159.655197 179.659851,175.769287 188.853256,193.624832 
M329.169403,15.637498 
	C316.404907,22.313141 303.260071,28.359928 290.958527,35.800934 
	C268.338196,49.483627 253.956680,69.898575 244.821030,94.525635 
	C237.077377,115.400307 232.581421,136.968918 229.629791,158.889832 
	C228.071259,170.464539 227.620956,182.188477 226.670288,193.845032 
	C231.986801,186.622253 236.101425,179.108383 240.628723,171.851990 
	C255.622498,147.819855 275.722076,129.261459 300.569702,115.608231 
	C318.875427,105.549629 338.159271,98.146889 358.284698,92.877045 
	C362.028473,91.896744 362.818909,90.226738 362.799652,86.694984 
	C362.661407,61.372726 362.725708,36.049366 362.725708,10.726353 
	C362.725708,9.258906 362.725708,7.791459 362.725708,4.917204 
	C351.226501,8.557540 340.550812,11.937182 329.169403,15.637498 
z"/>
<path fill="#252524" opacity="1.000000" stroke="none" 
	d="
M248.531342,1.000001 
	C248.761307,1.923873 248.827911,3.174289 248.239639,3.724289 
	C228.986847,21.724947 217.790680,44.430332 209.888947,69.079376 
	C209.701126,69.665283 209.395859,70.213539 208.691101,71.805534 
	C207.856903,69.897453 207.292786,68.870674 206.945969,67.775108 
	C199.424362,44.013680 188.390198,22.342533 169.869476,5.077566 
	C168.815628,4.095171 168.151367,2.694842 167.652893,1.244513 
	C194.687561,1.000000 221.375122,1.000000 248.531342,1.000001 
z"/>
<path fill="#232322" opacity="1.000000" stroke="none" 
	d="
M74.892685,145.025848 
	C101.770088,153.557220 125.697624,166.295502 144.979538,186.763840 
	C157.686020,200.252136 166.552505,216.060776 173.006042,233.349380 
	C181.362167,255.734863 183.300949,279.288391 185.962784,302.724152 
	C188.403229,324.210754 190.940994,345.686340 193.372360,367.173981 
	C194.301926,375.389282 195.055130,383.624542 195.372864,392.417023 
	C150.318008,325.536285 87.633339,288.787048 7.410148,281.327972 
	C7.410148,233.615799 7.410148,186.080811 7.410148,137.854782 
	C30.190493,135.529312 52.518650,138.426086 74.892685,145.025848 
z"/>
<path fill="#232322" opacity="1.000000" stroke="none" 
	d="
M223.391251,371.394409 
	C227.165375,338.533630 230.645828,306.098297 234.629578,273.724915 
	C238.501144,242.263321 248.738770,213.304443 270.020081,189.059525 
	C285.607513,171.301422 305.195526,159.243683 326.796783,150.446564 
	C350.321167,140.866287 374.912201,136.357895 400.379883,137.130890 
	C403.350983,137.221069 406.316345,137.499496 409.638000,137.713425 
	C409.638000,185.666031 409.638000,233.218613 409.638000,281.294067 
	C329.844849,288.783295 266.987640,325.193085 222.490509,392.511932 
	C222.048141,392.340240 221.605789,392.168579 221.163422,391.996887 
	C221.881561,385.280243 222.599701,378.563629 223.391251,371.394409 
z"/>
<path fill="#252524" opacity="1.000000" stroke="none" 
	d="
M188.694305,193.295837 
	C179.659851,175.769287 169.195129,159.655197 155.918808,145.489685 
	C140.713745,129.266235 122.626198,116.941940 102.366455,108.158936 
	C86.888229,101.448814 70.794609,96.158203 54.502716,90.059464 
	C54.502716,62.758789 54.502716,34.677895 54.502716,5.805450 
	C56.936554,6.280234 59.139595,6.586244 61.276283,7.145685 
	C86.541107,13.760684 110.130913,23.916603 131.466156,39.263733 
	C147.814407,51.023560 159.913406,65.955276 168.069305,84.279556 
	C180.601440,112.436165 186.037247,142.258514 188.939194,172.667236 
	C189.602051,179.613205 189.685349,186.614731 190.003250,193.592148 
	C190.012238,193.789505 189.654663,194.003571 189.468018,194.209839 
	C189.263092,194.014847 189.058167,193.819839 188.694305,193.295837 
z"/>
<path fill="#252524" opacity="1.000000" stroke="none" 
	d="
M329.522247,15.477161 
	C340.550812,11.937182 351.226501,8.557540 362.725708,4.917204 
	C362.725708,7.791459 362.725708,9.258906 362.725708,10.726353 
	C362.725708,36.049366 362.661407,61.372726 362.799652,86.694984 
	C362.818909,90.226738 362.028473,91.896744 358.284698,92.877045 
	C338.159271,98.146889 318.875427,105.549629 300.569702,115.608231 
	C275.722076,129.261459 255.622498,147.819855 240.628723,171.851990 
	C236.101425,179.108383 231.986801,186.622253 226.670288,193.845032 
	C227.620956,182.188477 228.071259,170.464539 229.629791,158.889832 
	C232.581421,136.968918 237.077377,115.400307 244.821030,94.525635 
	C253.956680,69.898575 268.338196,49.483627 290.958527,35.800934 
	C303.260071,28.359928 316.404907,22.313141 329.522247,15.477161 
z"/>
</svg>