<svg version="1.1" id="Layer_1" xmlns="http://www.w3.org/2000/svg" xmlns:xlink="http://www.w3.org/1999/xlink" x="0px" y="0px"
	 width="100%" viewBox="0 0 711 720" enable-background="new 0 0 711 720" xml:space="preserve">
<path fill="#FEFFFF" opacity="1.000000" stroke="none" 
	d="
M0.999998,376.000000 
	C1.000000,251.018509 1.000000,126.037033 1.000000,1.027772 
	C237.946381,1.027772 474.892792,1.027772 711.919556,1.027772 
	C711.919556,240.910797 711.919556,480.821655 711.919556,720.866211 
	C475.124329,720.866211 238.248581,720.866211 1.000000,720.866211 
	C1.000000,610.641113 1.000000,500.281830 1.312019,389.729858 
	C2.514571,397.530426 3.405104,405.523682 4.295637,413.516907 
	C4.694189,413.576019 5.092740,413.635132 5.491291,413.694244 
	C73.204994,289.002716 140.918701,164.311157 208.632416,39.619621 
	C208.300079,39.251671 207.967743,38.883720 207.635422,38.515770 
	C197.132858,44.162113 186.601273,49.755966 176.167999,55.527546 
	C174.989838,56.179283 174.207581,57.747276 173.508072,59.035057 
	C124.899498,148.523315 76.334167,238.035065 27.719740,327.520142 
	C18.911510,343.733521 9.911480,359.842712 0.999998,376.000000 
M116.965073,98.869881 
	C116.442924,99.280365 115.889191,99.656693 115.403122,100.106194 
	C62.361187,149.157806 27.124863,208.710785 10.122246,278.959076 
	C7.956429,287.907440 6.429677,297.010437 4.606862,306.041809 
	C6.671599,304.742249 7.706168,303.115356 8.624737,301.425446 
	C37.629665,248.064377 66.650177,194.711731 95.600563,141.321075 
	C103.205772,127.295479 110.588486,113.149231 118.494888,98.815422 
	C118.479218,98.416176 118.463554,98.016937 118.447884,97.617691 
	C118.168007,97.975433 117.888130,98.333183 116.965073,98.869881 
M501.693054,682.167053 
	C511.066284,677.503235 520.524231,672.998169 529.755981,668.069275 
	C532.204834,666.761780 534.616699,664.510071 535.935730,662.087585 
	C592.357483,558.464844 648.627380,454.759399 705.056885,351.140869 
	C707.432251,346.779053 708.252197,342.569519 707.695801,337.831421 
	C707.346985,334.861145 707.225830,331.864258 706.883545,328.893036 
	C706.125610,322.313568 705.292725,315.742737 704.490479,309.168365 
	C702.754089,310.121490 702.122498,311.072845 701.579102,312.072113 
	C676.456787,358.270721 651.330383,404.467072 626.229614,450.677368 
	C593.344666,511.218567 560.458679,571.759216 527.622070,632.326660 
	C518.668945,648.840820 509.891632,665.450317 500.750397,682.156921 
	C500.711975,682.249756 500.673523,682.342529 500.635101,682.435364 
	C500.740967,682.273499 500.846832,682.111572 501.693054,682.167053 
M458.095184,227.582336 
	C431.785675,275.995239 405.469116,324.404327 379.168182,372.821869 
	C337.531982,449.470276 295.903717,526.122986 254.285995,602.781494 
	C252.736145,605.636230 251.332794,608.570496 249.524673,612.130188 
	C256.566681,612.130188 262.717957,611.917480 268.845032,612.210632 
	C272.470306,612.384094 274.422302,611.233093 276.206726,607.939636 
	C325.373901,517.193909 374.672150,426.519196 423.939758,335.827881 
	C465.896912,258.593567 507.845886,181.354797 549.790405,104.113625 
	C554.704041,95.065163 559.566284,85.988869 564.729858,76.410652 
	C558.784973,72.290680 553.119080,68.364082 546.895142,64.050781 
	C517.185608,118.779320 487.826630,172.862152 458.095184,227.582336 
M345.996063,319.500366 
	C363.555511,287.169647 381.115356,254.839142 398.674255,222.508087 
	C412.975159,196.175873 427.280090,169.845856 441.565155,143.505051 
	C442.716095,141.382858 444.625000,139.241608 441.640625,136.982681 
	C436.768951,133.295227 431.950958,129.536819 426.723785,125.510620 
	C332.302307,299.384125 238.287842,472.508118 144.150238,645.858887 
	C150.401184,650.119873 155.979019,653.921997 162.103607,658.096863 
	C223.494965,545.048218 284.563416,432.594208 345.996063,319.500366 
M427.414795,435.942566 
	C429.250366,432.584320 431.094086,429.230469 432.920319,425.867188 
	C468.417908,360.493469 503.910187,295.116821 539.410645,229.744659 
	C560.456909,190.989197 581.529419,152.247955 602.499756,113.451500 
	C603.133362,112.279312 603.427856,109.902824 602.742432,109.203598 
	C598.131226,104.500084 593.212036,100.098564 587.891663,95.131493 
	C494.175690,267.706696 400.879883,439.508240 307.138794,612.129761 
	C315.012451,612.129761 321.503632,611.963013 327.979675,612.203918 
	C330.969055,612.315186 332.409332,611.075989 333.741852,608.615845 
	C364.811218,551.254639 395.947418,493.929688 427.414795,435.942566 
M244.272003,354.781647 
	C221.405975,396.908691 198.536240,439.033722 175.674881,481.163330 
	C152.575897,523.730774 129.472992,566.296204 106.453514,608.906616 
	C105.800720,610.115051 105.371979,612.524841 106.031685,613.188354 
	C110.667519,617.850769 115.616760,622.201416 121.035683,627.174683 
	C213.913742,456.146942 306.381866,285.874054 399.148438,115.051552 
	C392.247986,113.658875 386.101715,112.172501 379.868042,111.341766 
	C378.400330,111.146172 375.920929,112.765419 375.118469,114.218735 
	C362.649475,136.800705 350.376709,159.491058 338.065308,182.160019 
	C306.929077,239.491104 275.796234,296.824005 244.272003,354.781647 
M446.411682,195.880722 
	C418.522186,247.212753 390.631042,298.543854 362.743561,349.876984 
	C308.239319,450.204285 253.734268,550.531128 199.240021,650.863892 
	C195.295334,658.126587 191.435577,665.435486 187.298141,673.168030 
	C193.998642,676.455994 200.157303,679.478027 206.487137,682.584106 
	C207.683258,680.493469 208.528259,679.078247 209.315414,677.631592 
	C228.804062,641.813660 248.308838,606.004578 267.765167,570.169128 
	C298.656799,513.271484 329.496155,456.345551 360.392792,399.450684 
	C398.756531,328.805542 437.159698,258.181854 475.506256,187.527435 
	C476.086487,186.458359 476.815308,184.724350 476.362488,183.957336 
	C472.512787,177.436752 468.404877,171.068619 463.824036,163.778961 
	C457.820221,174.873489 452.307220,185.061050 446.411682,195.880722 
M452.727325,336.216888 
	C460.729828,321.429291 468.719788,306.634918 476.737762,291.855743 
	C488.407806,270.344849 500.138367,248.866501 511.681610,227.287872 
	C512.390442,225.962860 512.408203,223.129303 511.520721,222.280807 
	C506.990753,217.949921 502.057373,214.041000 496.797516,209.588638 
	C409.122009,371.044037 321.605865,532.205933 233.866928,693.778137 
	C238.923767,695.486816 243.743134,696.790710 248.285675,698.739868 
	C253.003983,700.764282 255.464294,699.665100 257.961823,695.040894 
	C295.698364,625.170959 333.623688,555.403015 371.516907,485.617767 
	C398.447754,436.021149 425.396820,386.434448 452.727325,336.216888 
M118.148483,480.639099 
	C115.359047,485.752655 112.563438,490.862885 109.781235,495.980377 
	C96.903030,519.668274 83.994064,543.339661 71.234985,567.091553 
	C70.436348,568.578247 69.993759,571.276001 70.795883,572.430115 
	C74.710518,578.062805 79.104469,583.362366 83.734978,589.300537 
	C170.916962,428.758728 257.660736,269.023895 344.517181,109.081505 
	C337.696533,109.081505 331.760559,109.287888 325.846558,109.015564 
	C321.197601,108.801491 318.775208,110.875847 316.634460,114.874138 
	C300.451752,145.099091 284.057373,175.210861 267.695007,205.339447 
	C217.972916,296.894440 168.235443,388.441010 118.148483,480.639099 
M515.206177,380.744141 
	C544.130676,327.513763 573.055481,274.283539 601.979553,221.052933 
	C613.739136,199.411057 625.530823,177.786377 637.191711,156.091446 
	C638.116821,154.370285 639.177246,151.445435 638.392883,150.297424 
	C634.486877,144.580353 629.984375,139.270782 625.128601,133.102310 
	C538.281067,293.036591 451.875122,452.157562 365.006683,612.130249 
	C372.436615,612.130249 378.592773,611.900696 384.720917,612.216309 
	C388.399750,612.405762 390.292175,611.113831 392.045532,607.874451 
	C432.924500,532.348083 473.926270,456.888245 515.206177,380.744141 
M344.847809,641.336853 
	C416.267822,509.783630 487.687866,378.230438 559.202332,246.503220 
	C552.070129,243.792480 545.597656,241.332504 538.825562,238.758636 
	C453.915955,395.117065 369.163208,551.186646 284.033905,707.949707 
	C292.302917,709.316589 299.450928,710.498169 306.598877,711.679749 
	C319.363739,688.178467 331.913696,665.072754 344.847809,641.336853 
M354.144043,357.666687 
	C409.895538,255.044830 465.647003,152.422958 521.664001,49.312393 
	C515.029358,46.014679 508.851196,42.943886 502.270294,39.672897 
	C421.098450,189.147049 340.119141,338.266632 259.562439,486.608063 
	C265.386993,491.872955 270.857361,496.817688 276.055176,501.516052 
	C301.270966,455.109528 327.560242,406.727448 354.144043,357.666687 
M287.455902,373.978455 
	C349.952454,258.899536 412.449036,143.820602 475.075653,28.502188 
	C469.211182,26.562571 463.756226,25.022387 458.520538,22.932913 
	C455.094208,21.565527 453.635956,22.572550 451.981262,25.625559 
	C409.072906,104.794815 366.061310,183.908142 323.074280,263.034790 
	C294.230927,316.127014 265.392792,369.222137 236.563522,422.322021 
	C229.031311,436.195404 221.540863,450.091522 213.740433,464.514832 
	C220.101654,467.937317 226.166016,471.200104 232.747940,474.741302 
	C251.083298,440.961304 269.086853,407.792572 287.455902,373.978455 
M381.203705,94.718918 
	C395.638519,68.172668 410.073303,41.626419 424.822937,14.501184 
	C418.232208,13.308769 412.530487,12.390667 406.883270,11.211628 
	C403.652344,10.537071 401.810486,11.377119 400.149261,14.447081 
	C366.883179,75.923141 333.498077,137.334808 300.134155,198.757935 
	C269.630554,254.915176 239.121262,311.069366 208.619370,367.227509 
	C197.578201,387.555786 186.518616,407.874329 175.593170,428.264618 
	C174.886047,429.584351 174.504257,432.192200 175.257568,432.997620 
	C179.728104,437.777435 184.578232,442.202179 189.813644,447.239807 
	C253.843750,329.331635 317.365753,212.359131 381.203705,94.718918 
M258.703827,124.164230 
	C256.008545,126.148361 252.230225,127.540726 250.775665,130.202789 
	C209.922745,204.969360 169.305695,279.864838 128.647720,354.737946 
	C99.425240,408.552155 70.192291,462.360718 41.009762,516.196594 
	C40.096958,517.880554 38.632652,520.341187 39.223495,521.586792 
	C42.581284,528.666016 46.486492,535.485596 50.772232,543.446228 
	C128.343033,400.602814 205.180771,259.109253 282.018524,117.615707 
	C281.796173,117.235504 281.573822,116.855309 281.351501,116.475105 
	C274.042938,118.952011 266.734375,121.428909 258.703827,124.164230 
M555.330750,314.919739 
	C483.126862,447.882538 410.922974,580.845337 338.139374,714.875671 
	C345.965271,714.875671 352.427948,714.737122 358.879974,714.938660 
	C361.769440,715.028870 363.310669,714.035034 364.691040,711.471375 
	C379.365204,684.218323 394.175934,657.038818 408.949188,629.839111 
	C438.257416,575.878601 467.573761,521.922424 496.871277,467.956055 
	C518.943420,427.298920 541.035522,386.652405 562.934753,345.902313 
	C564.179871,343.585358 564.535522,340.201874 563.968201,337.607086 
	C562.081604,328.977570 559.584534,320.481506 557.244995,311.645386 
	C556.676392,312.642120 556.196716,313.482971 555.330750,314.919739 
M229.600739,222.091904 
	C200.940445,274.909729 172.269012,327.721558 143.672653,380.574005 
	C142.796783,382.192780 141.757935,384.701935 142.401215,386.000122 
	C145.762695,392.783691 149.643631,399.309875 153.871216,406.868317 
	C226.357651,273.386475 298.258575,140.982819 370.852661,7.302749 
	C363.227142,7.302749 356.912567,7.514975 350.622131,7.217135 
	C347.255920,7.057750 345.537384,8.364977 344.027771,11.187249 
	C335.155914,27.773636 326.134613,44.280090 317.160431,60.811714 
	C288.093567,114.356682 259.025238,167.900848 229.600739,222.091904 
M197.411499,174.880569 
	C172.940613,219.923111 148.465622,264.963409 124.019608,310.019409 
	C123.316353,311.315521 122.307777,312.858948 122.477669,314.150818 
	C123.900009,324.966827 125.565155,335.750946 127.157127,346.544647 
	C127.682549,346.562408 128.207977,346.580139 128.733398,346.597900 
	C189.518890,234.666122 250.304398,122.734352 311.556976,9.942501 
	C303.014221,11.320664 295.464508,12.339065 288.022003,13.876572 
	C286.109680,14.271629 283.841431,15.924077 282.906555,17.637276 
	C254.445709,69.791885 226.131241,122.026390 197.411499,174.880569 
M565.422363,402.912415 
	C509.585419,505.729462 453.748474,608.546509 397.393372,712.317688 
	C406.516174,710.883789 414.396576,709.789978 422.198425,708.287903 
	C423.635010,708.011292 425.176422,706.311462 425.956879,704.879883 
	C449.136261,662.367004 472.221558,619.802795 495.330322,577.251404 
	C525.903076,520.956055 556.489197,464.667877 587.024292,408.352112 
	C587.766235,406.983643 588.742004,405.052185 588.310608,403.848511 
	C585.370239,395.644104 582.081604,387.564484 578.590149,378.638977 
	C574.023376,387.084167 569.914673,394.682190 565.422363,402.912415 
M24.134823,440.629639 
	C21.347168,445.741180 18.505205,450.824341 15.811179,455.984772 
	C15.161666,457.228912 14.368518,458.919586 14.718139,460.080688 
	C17.315981,468.708130 20.185396,477.253784 23.426346,487.231415 
	C83.792763,376.065948 143.379410,266.336426 202.966064,156.606918 
	C178.610077,173.545502 158.305618,194.117935 144.178680,219.864563 
	C104.003822,293.083984 64.355667,366.592407 24.134823,440.629639 
M506.437683,485.875946 
	C507.437500,485.875946 508.467438,485.718231 509.432007,485.902618 
	C514.236938,486.821228 517.072144,484.879089 519.108582,480.444763 
	C521.672607,474.861847 524.904968,469.586090 527.844482,464.175354 
	C554.378784,415.334167 580.923645,366.498688 607.442078,317.648865 
	C627.767273,280.207733 648.071777,242.755341 668.316284,205.270584 
	C669.114624,203.792404 670.055725,201.509323 669.472107,200.312256 
	C666.094604,193.385315 662.278931,186.672043 658.102417,178.944473 
	C602.259705,281.784515 547.054810,383.449829 491.436920,485.875793 
	C496.867432,485.875793 501.166382,485.875793 506.437683,485.875946 
M552.501831,479.990723 
	C551.731140,481.507935 550.960449,483.025177 549.875854,485.160400 
	C552.116028,484.881073 553.434937,484.809601 554.713135,484.543121 
	C570.255432,481.302765 581.327759,472.195831 588.807312,458.431427 
	C623.366394,394.832825 657.921875,331.232269 692.433716,267.608093 
	C693.274963,266.057190 694.420776,263.991516 694.020264,262.558472 
	C691.601562,253.904633 688.773193,245.365311 686.081909,236.787674 
	C685.557800,236.817886 685.033752,236.848099 684.509644,236.878326 
	C640.626099,317.700500 596.742493,398.522675 552.501831,479.990723 
M702.762573,424.283142 
	C703.150574,421.516449 703.538513,418.749725 703.926514,415.983032 
	C703.643188,415.920685 703.359863,415.858368 703.076538,415.796051 
	C665.651123,484.718964 628.225708,553.641907 590.800354,622.564819 
	C592.839600,622.435303 593.974976,621.619141 595.002014,620.684021 
	C613.424194,603.911011 629.621033,585.174561 643.973694,564.841125 
	C673.797852,522.589111 693.067810,475.892517 702.762573,424.283142 
M590.451660,624.642578 
	C590.536682,624.567993 590.677673,624.502014 590.690857,624.416382 
	C590.703979,624.331177 590.588684,624.226196 590.529663,624.129883 
	C590.444458,624.204285 590.359314,624.278748 590.451660,624.642578 
z"/>
<path fill="#4CC1DF" opacity="1.000000" stroke="none" 
	d="
M0.999998,376.463196 
	C9.911480,359.842712 18.911510,343.733521 27.719740,327.520142 
	C76.334167,238.035065 124.899498,148.523315 173.508072,59.035057 
	C174.207581,57.747276 174.989838,56.179283 176.167999,55.527546 
	C186.601273,49.755966 197.132858,44.162113 207.635422,38.515770 
	C207.967743,38.883720 208.300079,39.251671 208.632416,39.619621 
	C140.918701,164.311157 73.204994,289.002716 5.491291,413.694244 
	C5.092740,413.635132 4.694189,413.576019 4.295637,413.516907 
	C3.405104,405.523682 2.514571,397.530426 1.312019,389.268616 
	C1.000000,384.975464 1.000000,380.950897 0.999998,376.463196 
z"/>
<path fill="#4CC1DF" opacity="1.000000" stroke="none" 
	d="
M458.281403,227.263657 
	C487.826630,172.862152 517.185608,118.779320 546.895142,64.050781 
	C553.119080,68.364082 558.784973,72.290680 564.729858,76.410652 
	C559.566284,85.988869 554.704041,95.065163 549.790405,104.113625 
	C507.845886,181.354797 465.896912,258.593567 423.939758,335.827881 
	C374.672150,426.519196 325.373901,517.193909 276.206726,607.939636 
	C274.422302,611.233093 272.470306,612.384094 268.845032,612.210632 
	C262.717957,611.917480 256.566681,612.130188 249.524673,612.130188 
	C251.332794,608.570496 252.736145,605.636230 254.285995,602.781494 
	C295.903717,526.122986 337.531982,449.470276 379.168182,372.821869 
	C405.469116,324.404327 431.785675,275.995239 458.281403,227.263657 
z"/>
<path fill="#4CC1DF" opacity="1.000000" stroke="none" 
	d="
M345.813965,319.820282 
	C284.563416,432.594208 223.494965,545.048218 162.103607,658.096863 
	C155.979019,653.921997 150.401184,650.119873 144.150238,645.858887 
	C238.287842,472.508118 332.302307,299.384125 426.723785,125.510620 
	C431.950958,129.536819 436.768951,133.295227 441.640625,136.982681 
	C444.625000,139.241608 442.716095,141.382858 441.565155,143.505051 
	C427.280090,169.845856 412.975159,196.175873 398.674255,222.508087 
	C381.115356,254.839142 363.555511,287.169647 345.813965,319.820282 
z"/>
<path fill="#4CC1DF" opacity="1.000000" stroke="none" 
	d="
M427.243042,436.270294 
	C395.947418,493.929688 364.811218,551.254639 333.741852,608.615845 
	C332.409332,611.075989 330.969055,612.315186 327.979675,612.203918 
	C321.503632,611.963013 315.012451,612.129761 307.138794,612.129761 
	C400.879883,439.508240 494.175690,267.706696 587.891663,95.131493 
	C593.212036,100.098564 598.131226,104.500084 602.742432,109.203598 
	C603.427856,109.902824 603.133362,112.279312 602.499756,113.451500 
	C581.529419,152.247955 560.456909,190.989197 539.410645,229.744659 
	C503.910187,295.116821 468.417908,360.493469 432.920319,425.867188 
	C431.094086,429.230469 429.250366,432.584320 427.243042,436.270294 
z"/>
<path fill="#4CC1DF" opacity="1.000000" stroke="none" 
	d="
M244.467041,354.468933 
	C275.796234,296.824005 306.929077,239.491104 338.065308,182.160019 
	C350.376709,159.491058 362.649475,136.800705 375.118469,114.218735 
	C375.920929,112.765419 378.400330,111.146172 379.868042,111.341766 
	C386.101715,112.172501 392.247986,113.658875 399.148438,115.051552 
	C306.381866,285.874054 213.913742,456.146942 121.035683,627.174683 
	C115.616760,622.201416 110.667519,617.850769 106.031685,613.188354 
	C105.371979,612.524841 105.800720,610.115051 106.453514,608.906616 
	C129.472992,566.296204 152.575897,523.730774 175.674881,481.163330 
	C198.536240,439.033722 221.405975,396.908691 244.467041,354.468933 
z"/>
<path fill="#4CC1DF" opacity="1.000000" stroke="none" 
	d="
M446.602966,195.564667 
	C452.307220,185.061050 457.820221,174.873489 463.824036,163.778961 
	C468.404877,171.068619 472.512787,177.436752 476.362488,183.957336 
	C476.815308,184.724350 476.086487,186.458359 475.506256,187.527435 
	C437.159698,258.181854 398.756531,328.805542 360.392792,399.450684 
	C329.496155,456.345551 298.656799,513.271484 267.765167,570.169128 
	C248.308838,606.004578 228.804062,641.813660 209.315414,677.631592 
	C208.528259,679.078247 207.683258,680.493469 206.487137,682.584106 
	C200.157303,679.478027 193.998642,676.455994 187.298141,673.168030 
	C191.435577,665.435486 195.295334,658.126587 199.240021,650.863892 
	C253.734268,550.531128 308.239319,450.204285 362.743561,349.876984 
	C390.631042,298.543854 418.522186,247.212753 446.602966,195.564667 
z"/>
<path fill="#4CC1DF" opacity="1.000000" stroke="none" 
	d="
M452.532532,336.530090 
	C425.396820,386.434448 398.447754,436.021149 371.516907,485.617767 
	C333.623688,555.403015 295.698364,625.170959 257.961823,695.040894 
	C255.464294,699.665100 253.003983,700.764282 248.285675,698.739868 
	C243.743134,696.790710 238.923767,695.486816 233.866928,693.778137 
	C321.605865,532.205933 409.122009,371.044037 496.797516,209.588638 
	C502.057373,214.041000 506.990753,217.949921 511.520721,222.280807 
	C512.408203,223.129303 512.390442,225.962860 511.681610,227.287872 
	C500.138367,248.866501 488.407806,270.344849 476.737762,291.855743 
	C468.719788,306.634918 460.729828,321.429291 452.532532,336.530090 
z"/>
<path fill="#4CC1DF" opacity="1.000000" stroke="none" 
	d="
M118.326218,480.315002 
	C168.235443,388.441010 217.972916,296.894440 267.695007,205.339447 
	C284.057373,175.210861 300.451752,145.099091 316.634460,114.874138 
	C318.775208,110.875847 321.197601,108.801491 325.846558,109.015564 
	C331.760559,109.287888 337.696533,109.081505 344.517181,109.081505 
	C257.660736,269.023895 170.916962,428.758728 83.734978,589.300537 
	C79.104469,583.362366 74.710518,578.062805 70.795883,572.430115 
	C69.993759,571.276001 70.436348,568.578247 71.234985,567.091553 
	C83.994064,543.339661 96.903030,519.668274 109.781235,495.980377 
	C112.563438,490.862885 115.359047,485.752655 118.326218,480.315002 
z"/>
<path fill="#4CC1DF" opacity="1.000000" stroke="none" 
	d="
M515.055786,381.080139 
	C473.926270,456.888245 432.924500,532.348083 392.045532,607.874451 
	C390.292175,611.113831 388.399750,612.405762 384.720917,612.216309 
	C378.592773,611.900696 372.436615,612.130249 365.006683,612.130249 
	C451.875122,452.157562 538.281067,293.036591 625.128601,133.102310 
	C629.984375,139.270782 634.486877,144.580353 638.392883,150.297424 
	C639.177246,151.445435 638.116821,154.370285 637.191711,156.091446 
	C625.530823,177.786377 613.739136,199.411057 601.979553,221.052933 
	C573.055481,274.283539 544.130676,327.513763 515.055786,381.080139 
z"/>
<path fill="#4CC1DF" opacity="1.000000" stroke="none" 
	d="
M344.655731,641.651978 
	C331.913696,665.072754 319.363739,688.178467 306.598877,711.679749 
	C299.450928,710.498169 292.302917,709.316589 284.033905,707.949707 
	C369.163208,551.186646 453.915955,395.117065 538.825562,238.758636 
	C545.597656,241.332504 552.070129,243.792480 559.202332,246.503220 
	C487.687866,378.230438 416.267822,509.783630 344.655731,641.651978 
z"/>
<path fill="#4CC1DF" opacity="1.000000" stroke="none" 
	d="
M353.996765,358.006012 
	C327.560242,406.727448 301.270966,455.109528 276.055176,501.516052 
	C270.857361,496.817688 265.386993,491.872955 259.562439,486.608063 
	C340.119141,338.266632 421.098450,189.147049 502.270294,39.672897 
	C508.851196,42.943886 515.029358,46.014679 521.664001,49.312393 
	C465.647003,152.422958 409.895538,255.044830 353.996765,358.006012 
z"/>
<path fill="#4CC1DF" opacity="1.000000" stroke="none" 
	d="
M287.273163,374.301147 
	C269.086853,407.792572 251.083298,440.961304 232.747940,474.741302 
	C226.166016,471.200104 220.101654,467.937317 213.740433,464.514832 
	C221.540863,450.091522 229.031311,436.195404 236.563522,422.322021 
	C265.392792,369.222137 294.230927,316.127014 323.074280,263.034790 
	C366.061310,183.908142 409.072906,104.794815 451.981262,25.625559 
	C453.635956,22.572550 455.094208,21.565527 458.520538,22.932913 
	C463.756226,25.022387 469.211182,26.562571 475.075653,28.502188 
	C412.449036,143.820602 349.952454,258.899536 287.273163,374.301147 
z"/>
<path fill="#4CC1DF" opacity="1.000000" stroke="none" 
	d="
M381.045715,95.052780 
	C317.365753,212.359131 253.843750,329.331635 189.813644,447.239807 
	C184.578232,442.202179 179.728104,437.777435 175.257568,432.997620 
	C174.504257,432.192200 174.886047,429.584351 175.593170,428.264618 
	C186.518616,407.874329 197.578201,387.555786 208.619370,367.227509 
	C239.121262,311.069366 269.630554,254.915176 300.134155,198.757935 
	C333.498077,137.334808 366.883179,75.923141 400.149261,14.447081 
	C401.810486,11.377119 403.652344,10.537071 406.883270,11.211628 
	C412.530487,12.390667 418.232208,13.308769 424.822937,14.501184 
	C410.073303,41.626419 395.638519,68.172668 381.045715,95.052780 
z"/>
<path fill="#4CC1DF" opacity="1.000000" stroke="none" 
	d="
M259.064819,124.035019 
	C266.734375,121.428909 274.042938,118.952011 281.351501,116.475105 
	C281.573822,116.855309 281.796173,117.235504 282.018524,117.615707 
	C205.180771,259.109253 128.343033,400.602814 50.772232,543.446228 
	C46.486492,535.485596 42.581284,528.666016 39.223495,521.586792 
	C38.632652,520.341187 40.096958,517.880554 41.009762,516.196594 
	C70.192291,462.360718 99.425240,408.552155 128.647720,354.737946 
	C169.305695,279.864838 209.922745,204.969360 250.775665,130.202789 
	C252.230225,127.540726 256.008545,126.148361 259.064819,124.035019 
z"/>
<path fill="#4DC1DF" opacity="1.000000" stroke="none" 
	d="
M555.523926,314.621765 
	C556.196716,313.482971 556.676392,312.642120 557.244995,311.645386 
	C559.584534,320.481506 562.081604,328.977570 563.968201,337.607086 
	C564.535522,340.201874 564.179871,343.585358 562.934753,345.902313 
	C541.035522,386.652405 518.943420,427.298920 496.871277,467.956055 
	C467.573761,521.922424 438.257416,575.878601 408.949188,629.839111 
	C394.175934,657.038818 379.365204,684.218323 364.691040,711.471375 
	C363.310669,714.035034 361.769440,715.028870 358.879974,714.938660 
	C352.427948,714.737122 345.965271,714.875671 338.139374,714.875671 
	C410.922974,580.845337 483.126862,447.882538 555.523926,314.621765 
z"/>
<path fill="#4CC1DF" opacity="1.000000" stroke="none" 
	d="
M229.779114,221.768616 
	C259.025238,167.900848 288.093567,114.356682 317.160431,60.811714 
	C326.134613,44.280090 335.155914,27.773636 344.027771,11.187249 
	C345.537384,8.364977 347.255920,7.057750 350.622131,7.217135 
	C356.912567,7.514975 363.227142,7.302749 370.852661,7.302749 
	C298.258575,140.982819 226.357651,273.386475 153.871216,406.868317 
	C149.643631,399.309875 145.762695,392.783691 142.401215,386.000122 
	C141.757935,384.701935 142.796783,382.192780 143.672653,380.574005 
	C172.269012,327.721558 200.940445,274.909729 229.779114,221.768616 
z"/>
<path fill="#4DC1DF" opacity="1.000000" stroke="none" 
	d="
M501.033661,682.016113 
	C509.891632,665.450317 518.668945,648.840820 527.622070,632.326660 
	C560.458679,571.759216 593.344666,511.218567 626.229614,450.677368 
	C651.330383,404.467072 676.456787,358.270721 701.579102,312.072113 
	C702.122498,311.072845 702.754089,310.121490 704.490479,309.168365 
	C705.292725,315.742737 706.125610,322.313568 706.883545,328.893036 
	C707.225830,331.864258 707.346985,334.861145 707.695801,337.831421 
	C708.252197,342.569519 707.432251,346.779053 705.056885,351.140869 
	C648.627380,454.759399 592.357483,558.464844 535.935730,662.087585 
	C534.616699,664.510071 532.204834,666.761780 529.755981,668.069275 
	C520.524231,672.998169 511.066284,677.503235 501.341858,682.076477 
	C500.990692,681.985901 501.033661,682.016113 501.033661,682.016113 
z"/>
<path fill="#4DC1DF" opacity="1.000000" stroke="none" 
	d="
M197.602737,174.564514 
	C226.131241,122.026390 254.445709,69.791885 282.906555,17.637276 
	C283.841431,15.924077 286.109680,14.271629 288.022003,13.876572 
	C295.464508,12.339065 303.014221,11.320664 311.556976,9.942501 
	C250.304398,122.734352 189.518890,234.666122 128.733398,346.597900 
	C128.207977,346.580139 127.682549,346.562408 127.157127,346.544647 
	C125.565155,335.750946 123.900009,324.966827 122.477669,314.150818 
	C122.307777,312.858948 123.316353,311.315521 124.019608,310.019409 
	C148.465622,264.963409 172.940613,219.923111 197.602737,174.564514 
z"/>
<path fill="#4CC1DF" opacity="1.000000" stroke="none" 
	d="
M565.614197,402.596313 
	C569.914673,394.682190 574.023376,387.084167 578.590149,378.638977 
	C582.081604,387.564484 585.370239,395.644104 588.310608,403.848511 
	C588.742004,405.052185 587.766235,406.983643 587.024292,408.352112 
	C556.489197,464.667877 525.903076,520.956055 495.330322,577.251404 
	C472.221558,619.802795 449.136261,662.367004 425.956879,704.879883 
	C425.176422,706.311462 423.635010,708.011292 422.198425,708.287903 
	C414.396576,709.789978 406.516174,710.883789 397.393372,712.317688 
	C453.748474,608.546509 509.585419,505.729462 565.614197,402.596313 
z"/>
<path fill="#4DC1DF" opacity="1.000000" stroke="none" 
	d="
M24.317505,440.308350 
	C64.355667,366.592407 104.003822,293.083984 144.178680,219.864563 
	C158.305618,194.117935 178.610077,173.545502 202.966064,156.606918 
	C143.379410,266.336426 83.792763,376.065948 23.426346,487.231415 
	C20.185396,477.253784 17.315981,468.708130 14.718139,460.080688 
	C14.368518,458.919586 15.161666,457.228912 15.811179,455.984772 
	C18.505205,450.824341 21.347168,445.741180 24.317505,440.308350 
z"/>
<path fill="#4DC1DF" opacity="1.000000" stroke="none" 
	d="
M505.951538,485.875854 
	C501.166382,485.875793 496.867432,485.875793 491.436920,485.875793 
	C547.054810,383.449829 602.259705,281.784515 658.102417,178.944473 
	C662.278931,186.672043 666.094604,193.385315 669.472107,200.312256 
	C670.055725,201.509323 669.114624,203.792404 668.316284,205.270584 
	C648.071777,242.755341 627.767273,280.207733 607.442078,317.648865 
	C580.923645,366.498688 554.378784,415.334167 527.844482,464.175354 
	C524.904968,469.586090 521.672607,474.861847 519.108582,480.444763 
	C517.072144,484.879089 514.236938,486.821228 509.432007,485.902618 
	C508.467438,485.718231 507.437500,485.875946 505.951538,485.875854 
z"/>
<path fill="#4DC1DF" opacity="1.000000" stroke="none" 
	d="
M552.680420,479.667786 
	C596.742493,398.522675 640.626099,317.700500 684.509644,236.878326 
	C685.033752,236.848099 685.557800,236.817886 686.081909,236.787674 
	C688.773193,245.365311 691.601562,253.904633 694.020264,262.558472 
	C694.420776,263.991516 693.274963,266.057190 692.433716,267.608093 
	C657.921875,331.232269 623.366394,394.832825 588.807312,458.431427 
	C581.327759,472.195831 570.255432,481.302765 554.713135,484.543121 
	C553.434937,484.809601 552.116028,484.881073 549.875854,485.160400 
	C550.960449,483.025177 551.731140,481.507935 552.680420,479.667786 
z"/>
<path fill="#4DC1E0" opacity="1.000000" stroke="none" 
	d="
M118.073380,99.058395 
	C110.588486,113.149231 103.205772,127.295479 95.600563,141.321075 
	C66.650177,194.711731 37.629665,248.064377 8.624737,301.425446 
	C7.706168,303.115356 6.671599,304.742249 4.606862,306.041809 
	C6.429677,297.010437 7.956429,287.907440 10.122246,278.959076 
	C27.124863,208.710785 62.361187,149.157806 115.403122,100.106194 
	C115.889191,99.656693 116.442924,99.280365 117.404266,98.870605 
	C117.843452,98.871330 118.073380,99.058395 118.073380,99.058395 
z"/>
<path fill="#4DC1E0" opacity="1.000000" stroke="none" 
	d="
M702.680847,424.700500 
	C693.067810,475.892517 673.797852,522.589111 643.973694,564.841125 
	C629.621033,585.174561 613.424194,603.911011 595.002014,620.684021 
	C593.974976,621.619141 592.839600,622.435303 590.800354,622.564819 
	C628.225708,553.641907 665.651123,484.718964 703.076538,415.796051 
	C703.359863,415.858368 703.643188,415.920685 703.926514,415.983032 
	C703.538513,418.749725 703.150574,421.516449 702.680847,424.700500 
z"/>
<path fill="#4DC1E0" opacity="1.000000" stroke="none" 
	d="
M117.725861,98.781128 
	C117.888130,98.333183 118.168007,97.975433 118.447891,97.617691 
	C118.463554,98.016937 118.479218,98.416176 118.284134,98.936905 
	C118.073380,99.058395 117.843452,98.871330 117.725861,98.781128 
z"/>
<path fill="#4DC1E0" opacity="1.000000" stroke="none" 
	d="
M590.362915,624.497864 
	C590.359314,624.278748 590.444458,624.204285 590.529663,624.129883 
	C590.588684,624.226196 590.703979,624.331177 590.690857,624.416382 
	C590.677673,624.502014 590.536682,624.567993 590.362915,624.497864 
z"/>
<path fill="#4DC1DF" opacity="1.000000" stroke="none" 
	d="
M500.971680,681.967773 
	C500.846832,682.111572 500.740967,682.273499 500.635101,682.435364 
	C500.673523,682.342529 500.711975,682.249756 500.892029,682.086548 
	C501.033661,682.016113 500.990692,681.985901 500.971680,681.967773 
z"/>
</svg>