<?xml version="1.0" standalone="no"?>
<!DOCTYPE svg PUBLIC "-//W3C//DTD SVG 20010904//EN"
 "http://www.w3.org/TR/2001/REC-SVG-20010904/DTD/svg10.dtd">
<svg version="1.0" xmlns="http://www.w3.org/2000/svg"
 width="571.000000pt" height="140.000000pt" viewBox="0 0 571.000000 140.000000"
 preserveAspectRatio="xMidYMid meet">

<g transform="translate(0.000000,140.000000) scale(0.100000,-0.100000)"
fill="#000000" stroke="none">
<path d="M651 1265 c-204 -57 -358 -215 -406 -416 -30 -128 -13 -273 44 -387
85 -167 276 -287 480 -299 70 -4 103 0 176 19 l90 24 3 162 2 162 -50 -36
c-152 -109 -352 -73 -436 78 -26 48 -29 62 -29 148 0 102 13 140 70 208 87
104 292 112 404 15 l42 -35 -3 164 -3 163 -55 19 c-75 26 -255 32 -329 11z"/>
<path d="M1217 1253 c-4 -3 -7 -244 -7 -535 l0 -528 140 0 140 0 0 535 0 535
-133 0 c-74 0 -137 -3 -140 -7z"/>
<path d="M1800 1253 c0 -10 -168 -997 -176 -1035 l-6 -28 139 0 139 0 43 297
c23 164 43 302 45 307 1 6 58 -128 125 -297 l123 -307 57 0 56 0 124 300 c68
165 127 298 130 294 3 -3 22 -136 42 -295 20 -160 39 -292 41 -295 3 -2 66 -3
139 -2 l134 3 -80 530 -80 530 -136 3 -137 3 -113 -281 c-62 -154 -116 -280
-119 -280 -3 0 -53 125 -111 278 l-105 277 -137 3 c-75 1 -137 -1 -137 -5z"/>
<path d="M3130 725 l0 -535 140 0 140 0 2 322 3 321 250 -321 249 -322 138 0
138 0 0 535 0 535 -135 0 -135 0 0 -325 c0 -179 -3 -325 -7 -324 -5 0 -120
146 -258 324 l-250 324 -137 1 -138 0 0 -535z"/>
<path d="M4400 725 l0 -535 305 0 305 0 0 115 0 115 -165 0 -165 0 0 95 0 95
155 0 155 0 0 115 0 115 -155 0 -155 0 0 90 0 90 165 0 166 0 -3 118 -3 117
-302 3 -303 2 0 -535z"/>
<path d="M5180 935 l0 -325 185 0 185 0 0 325 0 325 -185 0 -185 0 0 -325z
m250 232 c34 -17 63 -79 55 -117 -4 -16 -20 -41 -36 -54 l-30 -25 31 -60 c16
-33 30 -65 30 -71 0 -5 -16 -10 -35 -10 -33 0 -37 3 -67 65 -42 85 -58 85 -58
-1 l0 -65 -37 3 -38 3 -3 173 -2 172 82 0 c46 0 94 -6 108 -13z"/>
<path d="M5320 1071 c0 -40 1 -41 34 -41 39 0 59 19 54 52 -2 19 -10 23 -45
26 l-43 3 0 -40z"/>
</g>
</svg>
