<svg version="1.1" id="Layer_1" xmlns="http://www.w3.org/2000/svg" xmlns:xlink="http://www.w3.org/1999/xlink" x="0px" y="0px"
	 width="100%" viewBox="0 0 337 500" enable-background="new 0 0 337 500" xml:space="preserve">
<path fill="#FEFDFC" opacity="1.000000" stroke="none" 
	d="
M1.000000,97.000000 
	C1.000000,81.312439 1.000000,65.624878 1.460328,49.373783 
	C113.163933,48.810249 224.407211,48.810249 335.954712,48.810249 
	C335.954712,32.872635 335.954712,17.447645 336.041748,1.770344 
	C336.085846,1.345356 336.042938,1.172678 336.000000,0.999999 
	C336.666656,1.332661 337.783752,1.546602 337.909027,2.021966 
	C338.196381,3.112111 338.000000,4.329763 338.000000,5.495648 
	C338.000000,170.551743 338.000000,335.607819 338.000000,501.000000 
	C287.646271,501.000000 237.291794,501.000000 186.553055,500.609711 
	C189.233017,499.659882 192.285339,499.022400 195.363205,498.552246 
	C273.667389,486.591675 335.095978,417.293854 335.922363,338.143677 
	C336.750427,258.833710 336.176605,179.509125 336.195099,100.190948 
	C336.195343,99.086487 335.907318,97.981964 335.766571,96.968948 
	C319.401184,96.968948 303.349487,96.968948 286.965973,96.968948 
	C286.965973,99.343269 286.965942,101.319061 286.965942,103.294846 
	C286.966003,178.447525 287.022186,253.600327 286.885040,328.752747 
	C286.870209,336.877319 286.541687,345.157867 284.986420,353.097229 
	C276.118103,398.367615 249.995163,429.932373 206.428726,444.722412 
	C162.405396,459.667572 122.042068,450.376465 87.745636,418.904541 
	C62.228645,395.489044 50.286785,365.557129 50.248425,330.994232 
	C50.164089,255.008453 50.220497,179.022537 50.219460,103.036674 
	C50.219433,100.953873 50.219460,98.871071 50.219460,97.000000 
	C33.267883,97.000000 17.133942,97.000000 1.000000,97.000000 
M164.006241,148.480606 
	C162.208359,147.222931 160.410477,145.965240 158.612610,144.707565 
	C158.753174,144.359467 158.893753,144.011368 159.034332,143.663269 
	C185.912018,143.663269 212.789719,143.663269 239.509949,143.663269 
	C239.509949,127.738449 239.509949,112.343185 239.509949,96.534561 
	C192.207626,96.534561 145.303116,96.534561 98.212837,96.534561 
	C98.058113,97.220009 97.797485,97.839256 97.796158,98.459061 
	C97.765839,112.617073 97.671242,126.776566 97.889160,140.931152 
	C97.912880,142.471512 99.440918,144.460632 100.835800,145.424698 
	C106.310387,149.208466 112.010849,152.665466 117.627945,156.242996 
	C123.446350,159.948761 129.265366,163.653564 135.734695,167.773071 
	C123.670639,175.248703 112.308098,182.128464 101.174637,189.360901 
	C99.488747,190.456116 97.952377,193.169998 97.904839,195.172165 
	C97.608391,207.657639 97.755257,220.153671 97.755203,232.646194 
	C97.755196,234.570801 97.755203,236.495407 97.755203,238.651276 
	C145.502960,238.651276 192.519882,238.651276 239.528564,238.651276 
	C239.528564,222.849121 239.528564,207.453674 239.528564,191.410461 
	C212.529541,191.410461 185.904205,191.410461 159.278870,191.410461 
	C159.211731,191.090729 159.144608,190.771011 159.077484,190.451279 
	C170.018982,183.007660 180.960495,175.564041 192.445206,167.750885 
	C182.724899,161.171539 173.657333,155.034012 164.006241,148.480606 
M186.998154,265.326355 
	C182.572296,264.577789 178.152542,263.225586 173.719574,263.180725 
	C149.057190,262.931152 124.391609,262.996155 99.727104,262.972626 
	C99.097801,262.972046 98.468277,263.191498 97.579605,263.356445 
	C97.579605,278.887756 97.579605,294.296295 97.579605,310.329132 
	C99.598976,310.329132 101.376511,310.329102 103.154037,310.329132 
	C124.152740,310.329468 145.152817,310.204590 166.148987,310.435120 
	C170.378098,310.481537 174.908340,311.140289 178.752609,312.790985 
	C189.113373,317.239807 194.342514,328.645386 191.833466,339.760101 
	C189.467850,350.239410 180.077698,357.828247 169.014328,358.000977 
	C161.073044,358.125000 153.128250,358.025116 145.106812,358.025116 
	C145.106812,374.073608 145.106812,389.496826 145.106812,405.385437 
	C153.652115,405.385437 161.940948,405.538391 170.222580,405.358765 
	C205.075027,404.602753 234.784317,378.334015 239.090500,344.579285 
	C243.740204,308.131958 222.436844,275.351868 186.998154,265.326355 
z"/>
<path fill="#E9530F" opacity="1.000000" stroke="none" 
	d="
M1.000000,97.468658 
	C17.133942,97.000000 33.267883,97.000000 50.219460,97.000000 
	C50.219460,98.871071 50.219433,100.953873 50.219460,103.036674 
	C50.220497,179.022537 50.164089,255.008453 50.248425,330.994232 
	C50.286785,365.557129 62.228645,395.489044 87.745636,418.904541 
	C122.042068,450.376465 162.405396,459.667572 206.428726,444.722412 
	C249.995163,429.932373 276.118103,398.367615 284.986420,353.097229 
	C286.541687,345.157867 286.870209,336.877319 286.885040,328.752747 
	C287.022186,253.600327 286.966003,178.447525 286.965942,103.294846 
	C286.965942,101.319061 286.965973,99.343269 286.965973,96.968948 
	C303.349487,96.968948 319.401184,96.968948 335.766571,96.968948 
	C335.907318,97.981964 336.195343,99.086487 336.195099,100.190948 
	C336.176605,179.509125 336.750427,258.833710 335.922363,338.143677 
	C335.095978,417.293854 273.667389,486.591675 195.363205,498.552246 
	C192.285339,499.022400 189.233017,499.659882 186.084396,500.609711 
	C183.629440,501.000000 181.258896,501.000000 178.272308,500.678345 
	C176.454498,500.282806 175.252747,500.208984 173.611298,500.079407 
	C170.447739,500.349091 167.723862,500.674530 165.000000,501.000000 
	C160.643097,501.000000 156.286194,501.000000 151.400909,500.610657 
	C149.777237,499.895660 148.702499,499.415375 147.583694,499.266602 
	C72.429001,489.271667 13.816113,431.858124 2.789123,357.481934 
	C2.607919,356.259766 1.614438,355.157959 1.000002,354.000000 
	C1.000000,268.645782 1.000000,183.291550 1.000000,97.468658 
z"/>
<path fill="#020202" opacity="1.000000" stroke="none" 
	d="
M335.954712,2.022655 
	C335.954712,17.447645 335.954712,32.872635 335.954712,48.810249 
	C224.407211,48.810249 113.163933,48.810249 1.460328,48.905125 
	C1.000000,33.645771 1.000000,18.291544 1.467847,2.465826 
	C113.275368,2.003776 224.615036,2.013215 335.954712,2.022655 
z"/>
<path fill="#FEFDFD" opacity="1.000000" stroke="none" 
	d="
M1.000002,354.468658 
	C1.614438,355.157959 2.607919,356.259766 2.789123,357.481934 
	C13.816113,431.858124 72.429001,489.271667 147.583694,499.266602 
	C148.702499,499.415375 149.777237,499.895660 150.936264,500.610657 
	C101.073746,501.000000 51.147491,501.000000 1.000000,501.000000 
	C1.000000,452.312653 1.000000,403.625000 1.000002,354.468658 
z"/>
<path fill="#505050" opacity="1.000000" stroke="none" 
	d="
M336.041748,1.770344 
	C224.615036,2.013215 113.275368,2.003776 1.467847,1.997168 
	C2.497619,1.666667 3.995062,1.042582 5.492883,1.041673 
	C83.391563,0.994409 161.290268,1.000000 239.188965,1.000000 
	C271.147400,1.000000 303.105865,1.000000 335.532166,1.000000 
	C336.042938,1.172678 336.085846,1.345356 336.041748,1.770344 
z"/>
<path fill="#F19267" opacity="1.000000" stroke="none" 
	d="
M165.449982,501.000000 
	C167.723862,500.674530 170.447739,500.349091 173.592072,500.294983 
	C174.012543,500.566345 174.000000,501.000000 174.000000,501.000000 
	C171.299988,501.000000 168.599976,501.000000 165.449982,501.000000 
z"/>
<path fill="#F5AC8A" opacity="1.000000" stroke="none" 
	d="
M174.399994,501.000000 
	C174.000000,501.000000 174.012543,500.566345 174.031769,500.350769 
	C175.252747,500.208984 176.454498,500.282806 177.828125,500.678345 
	C176.933334,501.000000 175.866653,501.000000 174.399994,501.000000 
z"/>
<path fill="#E95410" opacity="1.000000" stroke="none" 
	d="
M164.298004,148.688538 
	C173.657333,155.034012 182.724899,161.171539 192.445206,167.750885 
	C180.960495,175.564041 170.018982,183.007660 159.077484,190.451279 
	C159.144608,190.771011 159.211731,191.090729 159.278870,191.410461 
	C185.904205,191.410461 212.529541,191.410461 239.528564,191.410461 
	C239.528564,207.453674 239.528564,222.849121 239.528564,238.651276 
	C192.519882,238.651276 145.502960,238.651276 97.755203,238.651276 
	C97.755203,236.495407 97.755196,234.570801 97.755203,232.646194 
	C97.755257,220.153671 97.608391,207.657639 97.904839,195.172165 
	C97.952377,193.169998 99.488747,190.456116 101.174637,189.360901 
	C112.308098,182.128464 123.670639,175.248703 135.734695,167.773071 
	C129.265366,163.653564 123.446350,159.948761 117.627945,156.242996 
	C112.010849,152.665466 106.310387,149.208466 100.835800,145.424698 
	C99.440918,144.460632 97.912880,142.471512 97.889160,140.931152 
	C97.671242,126.776566 97.765839,112.617073 97.796158,98.459061 
	C97.797485,97.839256 98.058113,97.220009 98.212837,96.534561 
	C145.303116,96.534561 192.207626,96.534561 239.509949,96.534561 
	C239.509949,112.343185 239.509949,127.738449 239.509949,143.663269 
	C212.789719,143.663269 185.912018,143.663269 159.034332,143.663269 
	C158.893753,144.011368 158.753174,144.359467 158.612610,144.707565 
	C160.410477,145.965240 162.208359,147.222931 164.298004,148.688538 
z"/>
<path fill="#E9540F" opacity="1.000000" stroke="none" 
	d="
M187.383179,265.467285 
	C222.436844,275.351868 243.740204,308.131958 239.090500,344.579285 
	C234.784317,378.334015 205.075027,404.602753 170.222580,405.358765 
	C161.940948,405.538391 153.652115,405.385437 145.106812,405.385437 
	C145.106812,389.496826 145.106812,374.073608 145.106812,358.025116 
	C153.128250,358.025116 161.073044,358.125000 169.014328,358.000977 
	C180.077698,357.828247 189.467850,350.239410 191.833466,339.760101 
	C194.342514,328.645386 189.113373,317.239807 178.752609,312.790985 
	C174.908340,311.140289 170.378098,310.481537 166.148987,310.435120 
	C145.152817,310.204590 124.152740,310.329468 103.154037,310.329132 
	C101.376511,310.329102 99.598976,310.329132 97.579605,310.329132 
	C97.579605,294.296295 97.579605,278.887756 97.579605,263.356445 
	C98.468277,263.191498 99.097801,262.972046 99.727104,262.972626 
	C124.391609,262.996155 149.057190,262.931152 173.719574,263.180725 
	C178.152542,263.225586 182.572296,264.577789 187.383179,265.467285 
z"/>
</svg>