<svg version="1.1" id="Layer_1" xmlns="http://www.w3.org/2000/svg" xmlns:xlink="http://www.w3.org/1999/xlink" x="0px" y="0px"
	 width="100%" viewBox="0 0 1200 1200" enable-background="new 0 0 1200 1200" xml:space="preserve">
<path fill="#007BC0" opacity="1.000000" stroke="none" 
	d="
M552.000000,1.000004 
	C584.354248,1.000000 616.708435,1.000000 649.391113,1.417961 
	C650.398132,2.213616 651.046387,2.846559 651.759705,2.931355 
	C666.264709,4.655635 680.856750,5.818527 695.266907,8.122850 
	C711.688477,10.748825 728.183594,13.503864 744.223083,17.788656 
	C766.582031,23.761621 788.761902,30.588131 810.631409,38.166241 
	C842.748718,49.295361 873.274353,64.206169 902.515198,81.420952 
	C921.755615,92.748199 940.592834,105.012001 958.392700,118.467438 
	C978.290100,133.508530 997.096680,150.047028 1015.811890,166.574951 
	C1025.365845,175.012390 1033.880127,184.670517 1042.503418,194.106796 
	C1052.061890,204.566360 1061.962036,214.844147 1070.369141,226.196548 
	C1085.531982,246.671341 1100.256592,267.522095 1114.126953,288.889160 
	C1130.217407,313.676422 1143.137573,340.301208 1154.670410,367.456848 
	C1167.890137,398.584564 1178.285400,430.761993 1185.805298,463.767487 
	C1189.356812,479.355804 1192.380005,495.095001 1194.849121,510.889862 
	C1196.851196,523.697632 1197.634888,536.694458 1199.083984,549.593384 
	C1199.181030,550.456421 1200.336670,551.200562 1201.000000,552.000000 
	C1201.000000,584.354248 1201.000000,616.708435 1200.583252,649.389587 
	C1199.781860,650.561279 1199.162354,651.375244 1199.046753,652.255371 
	C1196.679199,670.291626 1194.546387,688.360413 1192.004395,706.371643 
	C1188.527954,731.003174 1182.490723,755.121521 1174.764038,778.685303 
	C1167.798584,799.928162 1159.938477,820.967773 1150.971069,841.439209 
	C1141.806274,862.361755 1131.663818,882.965149 1120.408813,902.835510 
	C1106.138184,928.029358 1089.905273,952.073181 1071.234375,974.317993 
	C1059.380859,988.440430 1047.713013,1002.769897 1035.063477,1016.157837 
	C1023.696289,1028.188477 1011.269653,1039.244141 998.996887,1050.384277 
	C989.739441,1058.787354 980.480164,1067.332520 970.350525,1074.600342 
	C950.076294,1089.146851 929.898621,1104.049316 908.395264,1116.602295 
	C884.358765,1130.634155 859.335022,1143.198364 833.941467,1154.624756 
	C803.393372,1168.370361 771.358337,1178.301025 738.623962,1185.620117 
	C722.859558,1189.144775 706.989258,1192.323242 691.038513,1194.846802 
	C678.250366,1196.869873 665.264771,1197.635864 652.380737,1199.084473 
	C651.526184,1199.180542 650.790771,1200.336792 650.000000,1201.000000 
	C617.645752,1201.000000 585.291565,1201.000000 552.610474,1200.583252 
	C551.604980,1199.787964 550.956970,1199.153931 550.243164,1199.068359 
	C535.897644,1197.347046 521.442139,1196.290649 507.218140,1193.869873 
	C488.070068,1190.611328 468.901489,1187.079346 450.108093,1182.241455 
	C431.328949,1177.407104 412.858368,1171.233154 394.509094,1164.902832 
	C366.184265,1155.131226 338.814880,1142.958862 312.966980,1127.827271 
	C290.849670,1114.879639 269.069458,1101.251709 247.918732,1086.786133 
	C225.037994,1071.137573 204.247513,1052.734131 184.203613,1033.587036 
	C176.048752,1025.796997 168.286987,1017.560303 160.760284,1009.156189 
	C149.527802,996.614136 138.115753,984.170654 127.760063,970.919373 
	C109.618614,947.705505 93.184753,923.312256 78.701561,897.564514 
	C61.865440,867.633667 47.462868,836.658813 35.745548,804.406799 
	C26.366970,778.592224 19.052067,752.177490 13.255212,725.355713 
	C10.770042,713.856873 8.705447,702.238708 7.103664,690.584900 
	C5.337038,677.731812 4.347840,664.772461 2.902636,651.872620 
	C2.825709,651.185974 1.659255,650.621399 1.000002,650.000000 
	C1.000000,617.645752 1.000000,585.291565 1.418044,552.608887 
	C2.222542,551.268250 2.846142,550.281860 2.959408,549.239990 
	C4.362568,536.332947 4.882417,523.269287 7.220044,510.538025 
	C11.194904,488.890045 15.904433,467.354980 21.023119,445.944061 
	C29.453699,410.679810 42.416340,376.985107 57.958282,344.279144 
	C74.721336,309.003601 93.931946,275.111298 118.067741,244.334015 
	C134.013458,224.000473 150.520401,204.029144 167.906540,184.924408 
	C186.288788,164.725067 207.053452,146.930176 228.468582,129.908127 
	C256.099487,107.945396 285.426117,88.602356 316.471924,71.901016 
	C343.601501,57.306427 371.510895,44.220875 400.857513,34.791912 
	C424.918518,27.061218 449.383026,20.518005 473.853180,14.158181 
	C486.158508,10.960012 498.816010,8.937222 511.420471,7.119576 
	C524.258911,5.268188 537.230835,4.348129 550.131226,2.903023 
	C550.816589,2.826246 551.379883,1.659399 552.000000,1.000004 
M544.016052,1022.987244 
	C559.930786,1022.987244 575.845520,1022.987244 592.158203,1022.987244 
	C592.158203,1000.953491 592.158203,979.686890 592.158203,957.793579 
	C596.670227,958.225464 600.732178,959.063232 604.757568,958.913818 
	C615.972839,958.497559 627.196472,957.939026 638.374268,956.953735 
	C663.800537,954.712524 680.158630,937.849243 686.930359,914.693359 
	C690.089355,903.890930 690.869568,892.824158 689.101196,881.519470 
	C687.360718,870.393494 684.471863,859.790588 677.945251,850.514221 
	C666.074280,833.641724 648.707458,826.714905 629.067871,826.199341 
	C600.427612,825.447571 571.751953,826.043396 542.713379,826.787476 
	C542.476013,828.755249 542.032532,830.722961 542.031311,832.690857 
	C541.994690,893.835693 541.989441,954.980591 542.047058,1016.125366 
	C542.049194,1018.395752 542.727966,1020.665527 544.016052,1022.987244 
M496.000000,928.500000 
	C496.000000,894.424683 496.000000,860.349365 496.000000,826.278503 
	C476.653900,826.278503 458.064667,826.278503 439.000000,826.278503 
	C439.000000,828.507751 439.000000,830.465027 439.000000,832.422302 
	C439.000031,871.743225 439.047882,911.064392 438.921631,950.384888 
	C438.909790,954.069824 438.316589,957.932617 437.101471,961.400330 
	C433.383179,972.011658 425.904114,977.940125 414.646576,980.326416 
	C403.413025,982.707764 386.676056,976.436951 382.598328,964.884644 
	C380.562531,959.117310 379.203186,952.785217 379.154572,946.695618 
	C378.849976,908.543396 379.001160,870.387573 379.001465,832.232910 
	C379.001495,830.293091 379.001465,828.353271 379.001465,826.383545 
	C360.012085,826.383545 341.638123,826.383545 323.001282,826.383545 
	C323.001282,828.748291 323.001312,830.733826 323.001282,832.719360 
	C323.000977,873.039978 322.968048,913.360718 323.043671,953.681213 
	C323.052612,958.448303 323.482910,963.233643 324.012329,967.977661 
	C327.192535,996.474121 348.921906,1015.621948 373.750732,1022.964661 
	C387.014832,1026.887451 400.663208,1027.172729 414.384338,1027.059937 
	C430.900208,1026.924072 446.810883,1024.161255 461.196320,1015.856873 
	C479.238495,1005.441345 491.673950,990.520691 493.887054,969.099609 
	C495.243835,955.967163 495.338562,942.704285 496.000000,928.500000 
M345.540314,186.976517 
	C333.268646,196.931870 322.886169,208.219025 316.823700,223.261810 
	C310.505981,238.937912 308.535553,254.741959 311.600220,271.406097 
	C315.098083,290.425629 324.340759,305.905975 338.391907,318.957275 
	C352.394470,331.963440 368.985565,339.150879 387.735199,340.859406 
	C404.566406,342.393066 420.619446,339.038513 435.657898,330.790863 
	C451.301575,322.211304 463.138153,310.073212 471.199982,294.320343 
	C478.144562,280.750488 480.749390,266.236877 480.103027,250.951202 
	C479.592285,238.873306 476.380035,227.600296 470.901398,217.096970 
	C461.738068,199.529358 447.975311,186.584747 429.815125,178.292221 
	C415.795532,171.890427 401.063324,169.638382 385.983612,171.243744 
	C371.505676,172.785049 358.106476,178.081909 345.540314,186.976517 
M738.078674,306.335785 
	C744.089600,312.410522 749.416260,319.426819 756.238647,324.385132 
	C777.539001,339.865784 801.571228,345.102753 827.186890,338.699768 
	C852.226929,332.440582 870.942383,317.017151 882.774902,294.185883 
	C890.513306,279.254120 893.527405,263.138519 891.199707,246.014450 
	C889.716492,235.102905 886.833008,224.765533 881.530090,215.356781 
	C873.746033,201.545914 862.935974,190.533630 849.003113,182.437637 
	C830.362061,171.605881 810.667847,168.525650 789.739563,172.684402 
	C775.846130,175.445236 763.713989,181.724243 752.601257,190.662766 
	C742.327332,198.926559 734.817993,209.123489 729.301697,220.699905 
	C723.513855,232.846222 721.411316,245.916031 721.893799,259.522125 
	C722.501160,276.649780 727.949341,291.866577 738.078674,306.335785 
M456.492706,725.985168 
	C458.773102,723.380798 461.248383,720.920837 463.303070,718.149170 
	C479.851593,695.826111 484.317657,671.022949 477.000244,644.442139 
	C470.864990,622.155457 457.509155,605.202454 437.182495,593.578125 
	C419.785858,583.629456 401.340271,579.943909 381.815125,583.255005 
	C359.592438,587.023621 341.121948,597.855530 327.524475,616.059143 
	C312.868927,635.679138 306.842377,657.936218 311.298035,682.010132 
	C314.988068,701.947205 324.608948,718.963196 340.624268,732.294678 
	C359.960907,748.390930 382.156799,754.675415 406.579315,751.714294 
	C425.758301,749.388916 442.628815,740.985535 456.492706,725.985168 
M744.475098,609.066650 
	C740.919739,613.944824 737.084839,618.645813 733.860229,623.733643 
	C723.182129,640.581177 719.777344,659.403381 722.306946,678.712524 
	C725.347717,701.923462 736.821289,720.972168 755.715881,735.209045 
	C776.599426,750.944336 800.033508,755.651428 825.325806,750.184875 
	C844.272156,746.089905 860.098389,736.416077 872.419250,721.144226 
	C888.601379,701.086487 895.209717,678.242981 890.709778,653.030701 
	C886.975647,632.109375 876.786072,614.441223 859.644287,600.990967 
	C839.937866,585.528259 817.772583,579.503662 793.262329,583.197021 
	C774.445190,586.032471 758.553528,595.291077 744.475098,609.066650 
M402.197388,543.996582 
	C408.909454,542.613770 415.918945,542.040771 422.280792,539.704346 
	C446.509125,530.806396 464.259766,514.832520 474.164429,490.564117 
	C480.796661,474.313904 481.889526,457.633484 478.239349,440.709229 
	C474.022064,421.155365 463.950317,405.046661 448.128754,392.602234 
	C427.883026,376.677948 404.893921,370.796021 379.763641,375.341248 
	C362.568481,378.451294 347.616913,386.502258 335.095184,399.275208 
	C314.849091,419.927490 306.742950,444.546051 311.256897,472.671234 
	C315.873657,501.436890 332.472656,522.319702 358.268646,535.547058 
	C371.647552,542.407349 386.183289,544.945801 402.197388,543.996582 
M684.916443,230.851791 
	C681.065857,219.384140 675.492981,208.742630 667.274536,199.928543 
	C646.674988,177.836060 621.506042,167.797745 591.036194,171.903305 
	C574.731628,174.100204 560.356079,180.676315 548.396545,191.382858 
	C524.574036,212.709488 514.024414,239.361755 520.006714,271.445343 
	C525.167603,299.123505 540.871460,319.148285 565.596436,332.156372 
	C579.940430,339.702881 595.476440,342.253815 611.477722,340.875580 
	C622.942261,339.888153 633.779846,336.304352 643.964722,330.677734 
	C658.145813,322.843414 669.182861,311.924011 677.393738,298.057587 
	C685.188599,284.893677 688.427429,270.320312 688.690308,255.334503 
	C688.828186,247.471252 686.306641,239.561371 684.916443,230.851791 
M727.899841,427.426758 
	C721.669067,440.723053 720.549866,455.012329 722.253174,469.094360 
	C724.992493,491.742310 735.392944,510.733917 753.555725,525.096558 
	C774.987671,542.044373 799.137207,547.926758 825.725098,541.852112 
	C851.180542,536.036316 870.127869,520.903564 882.300232,498.021301 
	C891.664978,480.416840 894.180725,461.512878 890.103821,441.681335 
	C885.931763,421.386322 875.423279,404.947235 859.530212,392.456940 
	C839.072205,376.379181 815.656006,370.371613 789.702332,375.956635 
	C760.373779,382.267914 740.181091,399.512115 727.899841,427.426758 
M526.897644,704.529846 
	C533.505066,718.142456 543.170654,729.341370 555.590393,737.691162 
	C574.560791,750.445068 595.631348,754.914124 618.316467,751.005432 
	C639.170593,747.412292 656.264832,736.972168 669.405151,720.826721 
	C685.726929,700.772156 691.666443,677.437622 686.939087,651.891846 
	C681.973877,625.061035 666.945557,605.072266 643.125793,592.179199 
	C627.864441,583.918579 611.373291,580.622864 593.752869,582.844788 
	C579.935303,584.587097 567.312073,589.141296 555.935730,596.756348 
	C540.620789,607.007751 529.788818,621.166931 523.343933,638.429565 
	C519.289612,649.289124 516.824341,660.804749 518.427551,672.252075 
	C519.928650,682.970642 523.675049,693.374817 526.897644,704.529846 
M580.649109,540.990051 
	C593.385254,544.772705 606.436523,545.296448 619.279541,542.680176 
	C640.413574,538.374756 658.010925,527.717285 671.101929,510.328613 
	C683.431030,493.951965 689.176758,475.598907 688.149475,454.905396 
	C687.423462,440.281555 683.402100,426.966217 675.839966,414.582123 
	C667.028137,400.151550 654.883789,389.294098 639.687256,382.099518 
	C624.511169,374.914673 608.561951,372.480957 591.731140,374.896515 
	C567.429077,378.384338 548.277893,390.339233 534.167603,409.905243 
	C519.762695,429.879852 514.956543,452.490814 520.154663,476.688049 
	C523.445496,492.007019 530.541321,505.571503 541.486816,517.046692 
	C552.245850,528.326477 565.128235,536.041138 580.649109,540.990051 
M793.519409,968.017639 
	C789.335266,961.425354 784.189575,955.241516 781.177612,948.151245 
	C775.776733,935.437439 775.523376,921.884216 779.114136,908.583252 
	C783.626038,891.870361 793.106873,879.262756 809.956604,872.852905 
	C819.604492,869.182739 829.479614,870.288696 839.332153,869.986511 
	C846.841675,869.756287 853.524231,872.140869 859.695496,876.200623 
	C863.317932,878.583618 866.881165,881.056641 870.999512,883.847351 
	C870.999512,869.269104 870.811279,855.458374 871.095581,841.657471 
	C871.203613,836.416504 870.235962,833.502808 864.679993,830.985291 
	C845.893494,822.472595 826.439697,819.893127 806.394775,823.182312 
	C781.571655,827.255554 760.723145,838.718140 744.720703,858.656677 
	C729.974731,877.029785 723.193054,898.214905 722.113953,921.290222 
	C721.169373,941.489014 725.458679,960.705261 735.219788,978.636292 
	C744.753906,996.150146 758.860779,1008.811951 776.421204,1017.628845 
	C788.820496,1023.854492 802.347900,1026.796997 816.090637,1027.877930 
	C834.319458,1029.311646 851.787109,1025.804321 868.041626,1017.270264 
	C869.548828,1016.478882 870.839905,1013.761230 870.871277,1011.914856 
	C871.106018,998.090393 871.004700,984.260010 870.986084,970.431519 
	C870.984619,969.365417 870.811340,968.299561 870.753113,967.634766 
	C863.132324,971.509705 856.133484,976.660095 848.319031,978.727966 
	C828.920410,983.861328 810.125061,982.521606 793.519409,968.017639 
z"/>
<path fill="#000000" opacity="1.000000" stroke="none" 
	d="
M1.000002,650.468628 
	C1.659255,650.621399 2.825709,651.185974 2.902636,651.872620 
	C4.347840,664.772461 5.337038,677.731812 7.103664,690.584900 
	C8.705447,702.238708 10.770042,713.856873 13.255212,725.355713 
	C19.052067,752.177490 26.366970,778.592224 35.745548,804.406799 
	C47.462868,836.658813 61.865440,867.633667 78.701561,897.564514 
	C93.184753,923.312256 109.618614,947.705505 127.760063,970.919373 
	C138.115753,984.170654 149.527802,996.614136 160.760284,1009.156189 
	C168.286987,1017.560303 176.048752,1025.796997 184.203613,1033.587036 
	C204.247513,1052.734131 225.037994,1071.137573 247.918732,1086.786133 
	C269.069458,1101.251709 290.849670,1114.879639 312.966980,1127.827271 
	C338.814880,1142.958862 366.184265,1155.131226 394.509094,1164.902832 
	C412.858368,1171.233154 431.328949,1177.407104 450.108093,1182.241455 
	C468.901489,1187.079346 488.070068,1190.611328 507.218140,1193.869873 
	C521.442139,1196.290649 535.897644,1197.347046 550.243164,1199.068359 
	C550.956970,1199.153931 551.604980,1199.787964 552.141846,1200.583252 
	C368.406250,1201.000000 184.812485,1201.000000 1.000000,1201.000000 
	C1.000000,1017.645813 1.000000,834.291565 1.000002,650.468628 
z"/>
<path fill="#000000" opacity="1.000000" stroke="none" 
	d="
M551.531372,1.000004 
	C551.379883,1.659399 550.816589,2.826246 550.131226,2.903023 
	C537.230835,4.348129 524.258911,5.268188 511.420471,7.119576 
	C498.816010,8.937222 486.158508,10.960012 473.853180,14.158181 
	C449.383026,20.518005 424.918518,27.061218 400.857513,34.791912 
	C371.510895,44.220875 343.601501,57.306427 316.471924,71.901016 
	C285.426117,88.602356 256.099487,107.945396 228.468582,129.908127 
	C207.053452,146.930176 186.288788,164.725067 167.906540,184.924408 
	C150.520401,204.029144 134.013458,224.000473 118.067741,244.334015 
	C93.931946,275.111298 74.721336,309.003601 57.958282,344.279144 
	C42.416340,376.985107 29.453699,410.679810 21.023119,445.944061 
	C15.904433,467.354980 11.194904,488.890045 7.220044,510.538025 
	C4.882417,523.269287 4.362568,536.332947 2.959408,549.239990 
	C2.846142,550.281860 2.222542,551.268250 1.418044,552.140259 
	C1.000000,368.406250 1.000000,184.812485 1.000000,1.000000 
	C184.354172,1.000000 367.708435,1.000000 551.531372,1.000004 
z"/>
<path fill="#000000" opacity="1.000000" stroke="none" 
	d="
M650.468628,1201.000000 
	C650.790771,1200.336792 651.526184,1199.180542 652.380737,1199.084473 
	C665.264771,1197.635864 678.250366,1196.869873 691.038513,1194.846802 
	C706.989258,1192.323242 722.859558,1189.144775 738.623962,1185.620117 
	C771.358337,1178.301025 803.393372,1168.370361 833.941467,1154.624756 
	C859.335022,1143.198364 884.358765,1130.634155 908.395264,1116.602295 
	C929.898621,1104.049316 950.076294,1089.146851 970.350525,1074.600342 
	C980.480164,1067.332520 989.739441,1058.787354 998.996887,1050.384277 
	C1011.269653,1039.244141 1023.696289,1028.188477 1035.063477,1016.157837 
	C1047.713013,1002.769897 1059.380859,988.440430 1071.234375,974.317993 
	C1089.905273,952.073181 1106.138184,928.029358 1120.408813,902.835510 
	C1131.663818,882.965149 1141.806274,862.361755 1150.971069,841.439209 
	C1159.938477,820.967773 1167.798584,799.928162 1174.764038,778.685303 
	C1182.490723,755.121521 1188.527954,731.003174 1192.004395,706.371643 
	C1194.546387,688.360413 1196.679199,670.291626 1199.046753,652.255371 
	C1199.162354,651.375244 1199.781860,650.561279 1200.583252,649.858276 
	C1201.000000,833.593750 1201.000000,1017.187500 1201.000000,1201.000000 
	C1017.645813,1201.000000 834.291565,1201.000000 650.468628,1201.000000 
z"/>
<path fill="#000000" opacity="1.000000" stroke="none" 
	d="
M1201.000000,551.531372 
	C1200.336670,551.200562 1199.181030,550.456421 1199.083984,549.593384 
	C1197.634888,536.694458 1196.851196,523.697632 1194.849121,510.889862 
	C1192.380005,495.095001 1189.356812,479.355804 1185.805298,463.767487 
	C1178.285400,430.761993 1167.890137,398.584564 1154.670410,367.456848 
	C1143.137573,340.301208 1130.217407,313.676422 1114.126953,288.889160 
	C1100.256592,267.522095 1085.531982,246.671341 1070.369141,226.196548 
	C1061.962036,214.844147 1052.061890,204.566360 1042.503418,194.106796 
	C1033.880127,184.670517 1025.365845,175.012390 1015.811890,166.574951 
	C997.096680,150.047028 978.290100,133.508530 958.392700,118.467438 
	C940.592834,105.012001 921.755615,92.748199 902.515198,81.420952 
	C873.274353,64.206169 842.748718,49.295361 810.631409,38.166241 
	C788.761902,30.588131 766.582031,23.761621 744.223083,17.788656 
	C728.183594,13.503864 711.688477,10.748825 695.266907,8.122850 
	C680.856750,5.818527 666.264709,4.655635 651.759705,2.931355 
	C651.046387,2.846559 650.398132,2.213616 649.859802,1.417961 
	C833.593750,1.000000 1017.187500,1.000000 1201.000000,1.000000 
	C1201.000000,184.354172 1201.000000,367.708435 1201.000000,551.531372 
z"/>
<path fill="#000000" opacity="1.000000" stroke="none" 
	d="
M496.000000,929.000000 
	C495.338562,942.704285 495.243835,955.967163 493.887054,969.099609 
	C491.673950,990.520691 479.238495,1005.441345 461.196320,1015.856873 
	C446.810883,1024.161255 430.900208,1026.924072 414.384338,1027.059937 
	C400.663208,1027.172729 387.014832,1026.887451 373.750732,1022.964661 
	C348.921906,1015.621948 327.192535,996.474121 324.012329,967.977661 
	C323.482910,963.233643 323.052612,958.448303 323.043671,953.681213 
	C322.968048,913.360718 323.000977,873.039978 323.001282,832.719360 
	C323.001312,830.733826 323.001282,828.748291 323.001282,826.383545 
	C341.638123,826.383545 360.012085,826.383545 379.001465,826.383545 
	C379.001465,828.353271 379.001495,830.293091 379.001465,832.232910 
	C379.001160,870.387573 378.849976,908.543396 379.154572,946.695618 
	C379.203186,952.785217 380.562531,959.117310 382.598328,964.884644 
	C386.676056,976.436951 403.413025,982.707764 414.646576,980.326416 
	C425.904114,977.940125 433.383179,972.011658 437.101471,961.400330 
	C438.316589,957.932617 438.909790,954.069824 438.921631,950.384888 
	C439.047882,911.064392 439.000031,871.743225 439.000000,832.422302 
	C439.000000,830.465027 439.000000,828.507751 439.000000,826.278503 
	C458.064667,826.278503 476.653900,826.278503 496.000000,826.278503 
	C496.000000,860.349365 496.000000,894.424683 496.000000,929.000000 
z"/>
<path fill="#000000" opacity="1.000000" stroke="none" 
	d="
M345.801147,186.723755 
	C358.106476,178.081909 371.505676,172.785049 385.983612,171.243744 
	C401.063324,169.638382 415.795532,171.890427 429.815125,178.292221 
	C447.975311,186.584747 461.738068,199.529358 470.901398,217.096970 
	C476.380035,227.600296 479.592285,238.873306 480.103027,250.951202 
	C480.749390,266.236877 478.144562,280.750488 471.199982,294.320343 
	C463.138153,310.073212 451.301575,322.211304 435.657898,330.790863 
	C420.619446,339.038513 404.566406,342.393066 387.735199,340.859406 
	C368.985565,339.150879 352.394470,331.963440 338.391907,318.957275 
	C324.340759,305.905975 315.098083,290.425629 311.600220,271.406097 
	C308.535553,254.741959 310.505981,238.937912 316.823700,223.261810 
	C322.886169,208.219025 333.268646,196.931870 345.801147,186.723755 
z"/>
<path fill="#000000" opacity="1.000000" stroke="none" 
	d="
M737.996399,305.981934 
	C727.949341,291.866577 722.501160,276.649780 721.893799,259.522125 
	C721.411316,245.916031 723.513855,232.846222 729.301697,220.699905 
	C734.817993,209.123489 742.327332,198.926559 752.601257,190.662766 
	C763.713989,181.724243 775.846130,175.445236 789.739563,172.684402 
	C810.667847,168.525650 830.362061,171.605881 849.003113,182.437637 
	C862.935974,190.533630 873.746033,201.545914 881.530090,215.356781 
	C886.833008,224.765533 889.716492,235.102905 891.199707,246.014450 
	C893.527405,263.138519 890.513306,279.254120 882.774902,294.185883 
	C870.942383,317.017151 852.226929,332.440582 827.186890,338.699768 
	C801.571228,345.102753 777.539001,339.865784 756.238647,324.385132 
	C749.416260,319.426819 744.089600,312.410522 737.996399,305.981934 
z"/>
<path fill="#000000" opacity="1.000000" stroke="none" 
	d="
M456.243225,726.238403 
	C442.628815,740.985535 425.758301,749.388916 406.579315,751.714294 
	C382.156799,754.675415 359.960907,748.390930 340.624268,732.294678 
	C324.608948,718.963196 314.988068,701.947205 311.298035,682.010132 
	C306.842377,657.936218 312.868927,635.679138 327.524475,616.059143 
	C341.121948,597.855530 359.592438,587.023621 381.815125,583.255005 
	C401.340271,579.943909 419.785858,583.629456 437.182495,593.578125 
	C457.509155,605.202454 470.864990,622.155457 477.000244,644.442139 
	C484.317657,671.022949 479.851593,695.826111 463.303070,718.149170 
	C461.248383,720.920837 458.773102,723.380798 456.243225,726.238403 
z"/>
<path fill="#000000" opacity="1.000000" stroke="none" 
	d="
M744.726135,608.804688 
	C758.553528,595.291077 774.445190,586.032471 793.262329,583.197021 
	C817.772583,579.503662 839.937866,585.528259 859.644287,600.990967 
	C876.786072,614.441223 886.975647,632.109375 890.709778,653.030701 
	C895.209717,678.242981 888.601379,701.086487 872.419250,721.144226 
	C860.098389,736.416077 844.272156,746.089905 825.325806,750.184875 
	C800.033508,755.651428 776.599426,750.944336 755.715881,735.209045 
	C736.821289,720.972168 725.347717,701.923462 722.306946,678.712524 
	C719.777344,659.403381 723.182129,640.581177 733.860229,623.733643 
	C737.084839,618.645813 740.919739,613.944824 744.726135,608.804688 
z"/>
<path fill="#000000" opacity="1.000000" stroke="none" 
	d="
M401.724823,543.998047 
	C386.183289,544.945801 371.647552,542.407349 358.268646,535.547058 
	C332.472656,522.319702 315.873657,501.436890 311.256897,472.671234 
	C306.742950,444.546051 314.849091,419.927490 335.095184,399.275208 
	C347.616913,386.502258 362.568481,378.451294 379.763641,375.341248 
	C404.893921,370.796021 427.883026,376.677948 448.128754,392.602234 
	C463.950317,405.046661 474.022064,421.155365 478.239349,440.709229 
	C481.889526,457.633484 480.796661,474.313904 474.164429,490.564117 
	C464.259766,514.832520 446.509125,530.806396 422.280792,539.704346 
	C415.918945,542.040771 408.909454,542.613770 401.724823,543.998047 
z"/>
<path fill="#000000" opacity="1.000000" stroke="none" 
	d="
M684.951294,231.262177 
	C686.306641,239.561371 688.828186,247.471252 688.690308,255.334503 
	C688.427429,270.320312 685.188599,284.893677 677.393738,298.057587 
	C669.182861,311.924011 658.145813,322.843414 643.964722,330.677734 
	C633.779846,336.304352 622.942261,339.888153 611.477722,340.875580 
	C595.476440,342.253815 579.940430,339.702881 565.596436,332.156372 
	C540.871460,319.148285 525.167603,299.123505 520.006714,271.445343 
	C514.024414,239.361755 524.574036,212.709488 548.396545,191.382858 
	C560.356079,180.676315 574.731628,174.100204 591.036194,171.903305 
	C621.506042,167.797745 646.674988,177.836060 667.274536,199.928543 
	C675.492981,208.742630 681.065857,219.384140 684.951294,231.262177 
z"/>
<path fill="#000000" opacity="1.000000" stroke="none" 
	d="
M727.982056,427.043396 
	C740.181091,399.512115 760.373779,382.267914 789.702332,375.956635 
	C815.656006,370.371613 839.072205,376.379181 859.530212,392.456940 
	C875.423279,404.947235 885.931763,421.386322 890.103821,441.681335 
	C894.180725,461.512878 891.664978,480.416840 882.300232,498.021301 
	C870.127869,520.903564 851.180542,536.036316 825.725098,541.852112 
	C799.137207,547.926758 774.987671,542.044373 753.555725,525.096558 
	C735.392944,510.733917 724.992493,491.742310 722.253174,469.094360 
	C720.549866,455.012329 721.669067,440.723053 727.982056,427.043396 
z"/>
<path fill="#000000" opacity="1.000000" stroke="none" 
	d="
M526.665527,704.223633 
	C523.675049,693.374817 519.928650,682.970642 518.427551,672.252075 
	C516.824341,660.804749 519.289612,649.289124 523.343933,638.429565 
	C529.788818,621.166931 540.620789,607.007751 555.935730,596.756348 
	C567.312073,589.141296 579.935303,584.587097 593.752869,582.844788 
	C611.373291,580.622864 627.864441,583.918579 643.125793,592.179199 
	C666.945557,605.072266 681.973877,625.061035 686.939087,651.891846 
	C691.666443,677.437622 685.726929,700.772156 669.405151,720.826721 
	C656.264832,736.972168 639.170593,747.412292 618.316467,751.005432 
	C595.631348,754.914124 574.560791,750.445068 555.590393,737.691162 
	C543.170654,729.341370 533.505066,718.142456 526.665527,704.223633 
z"/>
<path fill="#000000" opacity="1.000000" stroke="none" 
	d="
M580.238281,540.951904 
	C565.128235,536.041138 552.245850,528.326477 541.486816,517.046692 
	C530.541321,505.571503 523.445496,492.007019 520.154663,476.688049 
	C514.956543,452.490814 519.762695,429.879852 534.167603,409.905243 
	C548.277893,390.339233 567.429077,378.384338 591.731140,374.896515 
	C608.561951,372.480957 624.511169,374.914673 639.687256,382.099518 
	C654.883789,389.294098 667.028137,400.151550 675.839966,414.582123 
	C683.402100,426.966217 687.423462,440.281555 688.149475,454.905396 
	C689.176758,475.598907 683.431030,493.951965 671.101929,510.328613 
	C658.010925,527.717285 640.413574,538.374756 619.279541,542.680176 
	C606.436523,545.296448 593.385254,544.772705 580.238281,540.951904 
z"/>
<path fill="#000000" opacity="1.000000" stroke="none" 
	d="
M543.091431,826.064697 
	C571.751953,826.043396 600.427612,825.447571 629.067871,826.199341 
	C648.707458,826.714905 666.074280,833.641724 677.945251,850.514221 
	C684.471863,859.790588 687.360718,870.393494 689.101196,881.519470 
	C690.869568,892.824158 690.089355,903.890930 686.930359,914.693359 
	C680.158630,937.849243 663.800537,954.712524 638.374268,956.953735 
	C627.196472,957.939026 615.972839,958.497559 604.757568,958.913818 
	C600.732178,959.063232 596.670227,958.225464 592.158203,957.793579 
	C592.158203,979.686890 592.158203,1000.953491 592.158203,1022.987244 
	C575.845520,1022.987244 559.930786,1022.987244 543.517273,1022.499634 
	C543.042786,956.696289 543.067078,891.380493 543.091431,826.064697 
M605.503845,915.999695 
	C609.162720,915.999573 612.980408,916.663452 616.441284,915.835632 
	C621.035461,914.736694 626.047546,913.361694 629.649963,910.536743 
	C638.765320,903.388306 639.249756,886.072021 632.853882,876.665161 
	C630.654358,873.430115 626.643188,869.932007 623.052795,869.422729 
	C613.003784,867.997559 602.742249,868.070374 592.317383,867.539490 
	C592.317383,884.235474 592.317383,899.919495 592.317383,915.999695 
	C596.590881,915.999695 600.550720,915.999695 605.503845,915.999695 
z"/>
<path fill="#000000" opacity="1.000000" stroke="none" 
	d="
M793.771545,968.276123 
	C810.125061,982.521606 828.920410,983.861328 848.319031,978.727966 
	C856.133484,976.660095 863.132324,971.509705 870.753113,967.634766 
	C870.811340,968.299561 870.984619,969.365417 870.986084,970.431519 
	C871.004700,984.260010 871.106018,998.090393 870.871277,1011.914856 
	C870.839905,1013.761230 869.548828,1016.478882 868.041626,1017.270264 
	C851.787109,1025.804321 834.319458,1029.311646 816.090637,1027.877930 
	C802.347900,1026.796997 788.820496,1023.854492 776.421204,1017.628845 
	C758.860779,1008.811951 744.753906,996.150146 735.219788,978.636292 
	C725.458679,960.705261 721.169373,941.489014 722.113953,921.290222 
	C723.193054,898.214905 729.974731,877.029785 744.720703,858.656677 
	C760.723145,838.718140 781.571655,827.255554 806.394775,823.182312 
	C826.439697,819.893127 845.893494,822.472595 864.679993,830.985291 
	C870.235962,833.502808 871.203613,836.416504 871.095581,841.657471 
	C870.811279,855.458374 870.999512,869.269104 870.999512,883.847351 
	C866.881165,881.056641 863.317932,878.583618 859.695496,876.200623 
	C853.524231,872.140869 846.841675,869.756287 839.332153,869.986511 
	C829.479614,870.288696 819.604492,869.182739 809.956604,872.852905 
	C793.106873,879.262756 783.626038,891.870361 779.114136,908.583252 
	C775.523376,921.884216 775.776733,935.437439 781.177612,948.151245 
	C784.189575,955.241516 789.335266,961.425354 793.771545,968.276123 
z"/>
<path fill="#0066CC" opacity="1.000000" stroke="none" 
	d="
M542.902405,826.426086 
	C543.067078,891.380493 543.042786,956.696289 543.054932,1022.473816 
	C542.727966,1020.665527 542.049194,1018.395752 542.047058,1016.125366 
	C541.989441,954.980591 541.994690,893.835693 542.031311,832.690857 
	C542.032532,830.722961 542.476013,828.755249 542.902405,826.426086 
z"/>
<path fill="#007BC0" opacity="1.000000" stroke="none" 
	d="
M605.007202,915.999695 
	C600.550720,915.999695 596.590881,915.999695 592.317383,915.999695 
	C592.317383,899.919495 592.317383,884.235474 592.317383,867.539490 
	C602.742249,868.070374 613.003784,867.997559 623.052795,869.422729 
	C626.643188,869.932007 630.654358,873.430115 632.853882,876.665161 
	C639.249756,886.072021 638.765320,903.388306 629.649963,910.536743 
	C626.047546,913.361694 621.035461,914.736694 616.441284,915.835632 
	C612.980408,916.663452 609.162720,915.999573 605.007202,915.999695 
z"/>
</svg>